<?xml version="1.0" encoding="iso-8859-1"?>
<!-- Uploaded to: SVG Repo, www.svgrepo.com, Generator: SVG Repo Mixer Tools -->
<svg height="800px" width="800px" version="1.1" id="Layer_1" xmlns="http://www.w3.org/2000/svg" xmlns:xlink="http://www.w3.org/1999/xlink" 
	 viewBox="0 0 512 512" xml:space="preserve">
<path style="fill:#F5DCB4;" d="M44.142,136.829v348.684c0,4.875,3.952,8.827,8.827,8.827h406.063c4.875,0,8.827-3.953,8.827-8.827
	V136.829L256,26.486L44.142,136.829z"/>
<path style="fill:#5B5D6E;" d="M335.446,300.137c-4.879,0-8.827-3.953-8.827-8.827v-52.965c0-38.939-31.681-70.62-70.62-70.62
	s-70.62,31.681-70.62,70.62v52.965c0,4.875-3.948,8.827-8.827,8.827c-4.879,0-8.827-3.953-8.827-8.827v-52.965
	c0-48.676,39.603-88.275,88.275-88.275s88.275,39.599,88.275,88.275v52.965C344.274,296.184,340.326,300.137,335.446,300.137z"/>
<polygon style="fill:#EBC9A0;" points="44.142,136.829 44.142,180.041 255.999,66.543 467.858,180.041 467.858,136.829 
	255.999,26.487 "/>
<path style="fill:#5B5D6E;" d="M503.159,167.725c-1.405,0-2.836-0.337-4.163-1.047L255.999,36.5L13.004,166.678
	c-4.31,2.315-9.646,0.681-11.957-3.612c-2.302-4.298-0.681-9.646,3.612-11.948L251.827,18.707c2.603-1.397,5.741-1.397,8.345,0
	l247.169,132.412c4.293,2.302,5.913,7.651,3.612,11.948C509.357,166.036,506.306,167.725,503.159,167.725z"/>
<path style="fill:#FF5050;" d="M255.999,441.376L255.999,441.376c-53.628,0-97.102-43.474-97.102-97.102v-44.137
	c0-9.751,7.904-17.655,17.655-17.655h158.894c9.751,0,17.655,7.904,17.655,17.655v44.137
	C353.101,397.902,309.627,441.376,255.999,441.376z"/>
<path style="fill:#464655;" d="M273.654,344.274c0-9.751-7.905-17.655-17.655-17.655c-9.75,0-17.655,7.904-17.655,17.655
	c0,6.518,3.573,12.148,8.827,15.206v20.103c0,4.875,3.948,8.827,8.827,8.827s8.827-3.953,8.827-8.827v-20.103
	C270.082,356.423,273.654,350.792,273.654,344.274z"/>
<g>
	<path style="fill:#FF7873;" d="M317.792,343.723c-6.094,0-11.034-4.94-11.034-11.034v-11.31c0-6.094,4.94-11.034,11.034-11.034
		s11.034,4.94,11.034,11.034v11.31C328.826,338.784,323.887,343.723,317.792,343.723z"/>
	<path style="fill:#FF7873;" d="M287.318,408.592c-3.776,0-7.457-1.944-9.517-5.436c-3.095-5.25-1.345-12.017,3.914-15.107
		c8.81-5.189,15.785-12.805,20.163-22.026c2.612-5.508,9.198-7.862,14.698-5.232c5.508,2.612,7.853,9.194,5.232,14.698
		c-6.276,13.224-16.276,24.142-28.904,31.577C291.155,408.101,289.224,408.592,287.318,408.592z"/>
</g>
<path style="fill:#C84146;" d="M194.207,344.274v-44.137c0-9.751,7.905-17.655,17.655-17.655h-35.31
	c-9.75,0-17.655,7.904-17.655,17.655v44.137c0,53.628,43.474,97.102,97.102,97.102c6.038,0,11.921-0.627,17.655-1.681
	C228.469,431.382,194.207,391.864,194.207,344.274z"/>
</svg>