<?xml version="1.0" encoding="iso-8859-1"?>
<!-- Uploaded to: SVG Repo, www.svgrepo.com, Generator: SVG Repo Mixer Tools -->
<svg height="800px" width="800px" version="1.1" id="Layer_1" xmlns="http://www.w3.org/2000/svg" xmlns:xlink="http://www.w3.org/1999/xlink" 
	 viewBox="0 0 512.001 512.001" xml:space="preserve">
<path style="fill:#F4A026;" d="M433.434,33.396c0,95.052,0,190.104,0,285.155c0.004,33.805-16.26,64.332-43.795,83.497
	c-44.51,30.858-89.128,64.158-133.638,97.457c-44.482-33.21-89.073-66.42-133.555-97.2c-27.583-19.164-43.883-49.72-43.879-83.559
	c0-95.117,0-190.233,0-285.351C195.2,5.395,316.803,5.395,433.434,33.396z"/>
<path style="fill:#EFEFEF;" d="M255.97,437.141c-33.442-24.861-69.331-51.198-105.084-75.936
	c-14.168-9.845-22.337-25.337-22.337-42.452V73.91c42.484-7.662,84.738-11.534,127.452-11.534s84.968,3.872,127.452,11.534v244.641
	c0,17.101-8.151,32.58-22.368,42.477C325.345,385.807,289.435,412.213,255.97,437.141z"/>
<path d="M436.352,21.245c-117.987-28.327-242.714-28.327-360.701,0c-5.618,1.348-9.579,6.373-9.579,12.15v285.349
	c0,37.878,17.943,72.077,49.264,93.836c45.764,31.667,92.21,66.343,133.19,96.937c2.217,1.656,4.846,2.483,7.475,2.483
	c2.633,0,5.267-0.831,7.485-2.49c40.997-30.671,87.463-65.434,133.291-97.206c31.241-21.746,49.152-55.919,49.152-93.754V33.396
	C445.93,27.619,441.969,22.595,436.352,21.245z M420.939,318.553c0,29.54-14.006,56.235-38.419,73.227
	c-43.406,30.094-87.233,62.739-126.526,92.127c-39.274-29.313-83.075-61.872-126.417-91.863
	c-24.48-17.007-38.513-43.724-38.513-73.297V43.314c108.709-24.437,221.167-24.437,329.876,0V318.553z"/>
<path d="M126.307,61.619c-5.938,1.083-10.254,6.256-10.254,12.293v244.842c0,21.267,10.094,40.48,27.722,52.728
	c37.214,25.75,73.83,52.711,104.739,75.689c2.213,1.644,4.833,2.468,7.455,2.468c2.625,0,5.251-0.825,7.465-2.474
	c30.926-23.039,67.56-50.067,104.789-75.88c17.622-12.267,27.725-31.487,27.725-52.731V73.91c0-6.036-4.316-11.21-10.254-12.293
	c-42.711-7.788-86.348-11.737-129.694-11.737S169.019,53.83,126.307,61.619z M370.958,318.553c0,12.949-6.198,24.692-16.992,32.205
	c-34.562,23.962-68.553,48.92-98.004,70.813c-29.433-21.834-63.405-46.727-97.947-70.628c-10.787-7.496-16.971-19.228-16.971-32.189
	V84.414c37.486-6.334,76.572-9.541,114.957-9.541s77.471,3.208,114.957,9.541v234.139H370.958z"/>
<path d="M203.268,224.561c-4.838-4.923-12.751-4.989-17.671-0.151c-4.921,4.838-4.989,12.749-0.151,17.671l48.316,49.148
	c2.352,2.393,5.563,3.736,8.91,3.736c0.084,0,0.169,0,0.252-0.003c3.437-0.07,6.695-1.552,9.004-4.1l89.133-98.297
	c4.635-5.112,4.248-13.015-0.863-17.65c-5.112-4.636-13.015-4.25-17.65,0.862l-80.242,88.493L203.268,224.561z"/>
</svg>