<svg height="512" viewBox="0 0 58 58" width="512" xmlns="http://www.w3.org/2000/svg"><g id="Page-1" fill="none" fill-rule="evenodd"><g id="001---Server-Settings" fill-rule="nonzero" transform="translate(-1)"><path id="Shape" d="m59 2.18v43.64c.0452102 1.152631-.8477494 2.1259569-2 2.18h-54c-1.15225064-.0540431-2.04521019-1.027369-2-2.18v-43.64c-.04521019-1.152631.84774936-2.12595691 2-2.18h54c1.1522506.05404309 2.0452102 1.027369 2 2.18z" fill="#67b9cc"/><path id="Shape" d="m59 21.07v24.75c.0452102 1.152631-.8477494 2.1259569-2 2.18h-54c-1.15225064-.0540431-2.04521019-1.027369-2-2.18v-10.97c9.39-8.29 29.48-21.2 58-13.78z" fill="#2fa8cc"/><path id="Shape" d="m59 42v3.82c.0452102 1.152631-.8477494 2.1259569-2 2.18h-54c-1.15225064-.0540431-2.04521019-1.027369-2-2.18v-3.82z" fill="#7f8c8d"/><path id="Shape" d="m38 48 3 6h-11-11l3-6z" fill="#547580"/><rect id="Rectangle-path" fill="#7f8c8d" height="4" rx="2" width="34" x="13" y="54"/><path id="Shape" d="m36 5h-1.323c-.4088272.00025877-.7763252.24934952-.928.629l-1.608 4.02c-.4904058.1681003-.969123.3685402-1.433.6l-3.985-1.71c-.3755529-.16061693-.8110402-.07668666-1.1.212l-1.871 1.871c-.2886867.2889598-.3726169.7244471-.212 1.1l1.708 3.985c-.2314598.463877-.4318997.9425942-.6 1.433l-4.02 1.608c-.3796505.1516748-.6287412.5191728-.629.928v2.646c.0002588.4088272.2493495.7763252.629.928l4.02 1.608c.1681003.4904058.3685402.969123.6 1.433l-1.708 3.985c-.1606169.3755529-.0766867.8110402.212 1.1l1.871 1.871c.2889598.2886867.7244471.3726169 1.1.212l3.985-1.708c.463877.2314598.9425942.4318997 1.433.6l1.608 4.02c.1516748.3796505.5191728.6287412.928.629h2.646c.4088272-.0002588.7763252-.2493495.928-.629l1.608-4.02c.4904058-.1681003.969123-.3685402 1.433-.6l3.985 1.708c.3755529.1606169.8110402.0766867 1.1-.212l1.871-1.871c.2886867-.2889598.3726169-.7244471.212-1.1l-1.708-3.985c.2314598-.463877.4318997-.9425942.6-1.433l4.02-1.608c.3789195-.151856.6274967-.5187844.628-.927v-2.646c-.0002588-.4088272-.2493495-.7763252-.629-.928l-4.02-1.608c-.1681003-.4904058-.3685402-.969123-.6-1.433l1.708-3.985c.1606169-.3755529.0766867-.8110402-.212-1.1l-1.869-1.872c-.2889598-.28868666-.7244471-.37261693-1.1-.212l-3.985 1.708c-.463877-.2314598-.9425942-.4318997-1.433-.6l-1.608-4.02c-.1524443-.37920351-.5203016-.62747752-.929-.627z" fill="#35495e"/><circle id="Oval" cx="36" cy="21" fill="#2c3e50" r="6"/><g fill="#955ba5"><rect id="Rectangle-path" height="8" rx="2" width="24" x="8" y="5"/><rect id="Rectangle-path" height="8" rx="2" width="24" x="8" y="17"/><rect id="Rectangle-path" height="8" rx="2" width="24" x="8" y="29"/></g><path id="Rectangle-path" d="m10 13h20v4h-20z" fill="#894b9d"/><path id="Rectangle-path" d="m10 25h20v4h-20z" fill="#894b9d"/><path id="Shape" d="m16 10h-4c-.5522847 0-1-.44771525-1-1s.4477153-1 1-1h4c.5522847 0 1 .44771525 1 1s-.4477153 1-1 1z" fill="#5d4c72"/><path id="Shape" d="m16 22h-4c-.5522847 0-1-.4477153-1-1s.4477153-1 1-1h4c.5522847 0 1 .4477153 1 1s-.4477153 1-1 1z" fill="#5d4c72"/><path id="Shape" d="m16 34h-4c-.5522847 0-1-.4477153-1-1s.4477153-1 1-1h4c.5522847 0 1 .4477153 1 1s-.4477153 1-1 1z" fill="#5d4c72"/><circle id="Oval" cx="28" cy="9" fill="#f0c419" r="1"/><circle id="Oval" cx="28" cy="21" fill="#f0c419" r="1"/><circle id="Oval" cx="28" cy="33" fill="#f0c419" r="1"/></g></g></svg>