<svg height="512" viewBox="0 0 58 58" width="512" xmlns="http://www.w3.org/2000/svg"><g id="Page-1" fill="none" fill-rule="evenodd"><g id="002---Secure-Server" fill-rule="nonzero"><path id="Shape" d="m40 4v39l-11.28 4.59c-2.8979368.283021-5.8082924.4198611-8.72.41-11.05 0-20-1.79-20-4v-40z" fill="#955ba5"/><path id="Shape" d="m40 17.08v13.17c0 1.96-8.98 3.75-19.94 3.75-11.08 0-20.06-1.79-20.06-4v-13c0 2.21 8.95 4 20.01 4s19.99-1.82 19.99-3.92z" fill="#894b9d"/><ellipse id="Oval" cx="20" cy="4" fill="#b49aca" rx="20" ry="4"/><circle id="Oval" cx="4" cy="10" fill="#f0c419" r="1"/><path id="Shape" d="m4 17c-.55228475 0-1-.4477153-1-1v-2c0-.5522847.44771525-1 1-1s1 .4477153 1 1v2c0 .5522847-.44771525 1-1 1z" fill="#3d324c"/><circle id="Oval" cx="4" cy="23" fill="#f0c419" r="1"/><path id="Shape" d="m4 30c-.55228475 0-1-.4477153-1-1v-2c0-.5522847.44771525-1 1-1s1 .4477153 1 1v2c0 .5522847-.44771525 1-1 1z" fill="#3d324c"/><circle id="Oval" cx="4" cy="36" fill="#f0c419" r="1"/><path id="Shape" d="m4 43c-.55228475 0-1-.4477153-1-1v-2c0-.5522847.44771525-1 1-1s1 .4477153 1 1v2c0 .5522847-.44771525 1-1 1z" fill="#3d324c"/><path id="Shape" d="m33 31.83v-10.83c0-.33.02-.65.05-.97.3953177-3.9890935 3.128534-7.3594049 6.95-8.57.9704413-.3064945 1.9823102-.4616477 3-.46 5.5191943.0088096 9.9911904 4.4808057 10 10v10.83l-4-2.58v-8.25c0-3.3137085-2.6862915-6-6-6-1.0546903-.0050382-2.0911709.2748116-3 .81-1.2307737.7096082-2.1698219 1.8329223-2.65 3.17-.2341739.6476112-.3526445 1.3313559-.35 2.02v8.25z" fill="#95a5a5"/><circle id="Oval" cx="43" cy="43" fill="#f3d55b" r="15"/><circle id="Oval" cx="43" cy="43" fill="#f0c419" r="11"/><path id="Shape" d="m44.813 43.846.823 2.879c.0863334.3018353.0259107.6266936-.1631755.8773017-.1890863.2506081-.484885.3978728-.7988245.3976983h-3.348c-.3139395.0001745-.6097382-.1470902-.7988245-.3976983-.1890862-.2506081-.2495089-.5754664-.1631755-.8773017l.822-2.876c.1769577-.6791022-.0001098-1.4016576-.471-1.922-.5973495-.6957281-.8391764-1.6286999-.655-2.527.3067031-1.5104357 1.7080407-2.5427212 3.2414976-2.3878266 1.533457.1548947 2.7000514 1.4465673 2.6985024 2.9878266-.0009117.7204176-.2643497 1.4158086-.741 1.956-.4605765.5130696-.6286127 1.2251514-.446 1.89z" fill="#35495e"/></g></g></svg>