<svg height="512" viewBox="0 0 58 58" width="512" xmlns="http://www.w3.org/2000/svg"><g id="Page-1" fill="none" fill-rule="evenodd"><g id="003---Connections" fill-rule="nonzero"><g fill="#f3d55b"><path id="Shape" d="m12 23h-4.513c-.61562594.0018128-1.19732211-.2818334-1.575-.768l-3.289-4.206c-.2200756-.2817039-.2731466-.659418-.13922165-.990861.13392495-.3314431.43449945-.5662609.7885-.616s.70764605.0931571.92772165.374861l3.287 4.206h4.513c.5522847 0 1 .4477153 1 1s-.4477153 1-1 1z"/><path id="Shape" d="m3.41 31.59c-.38227009-.0002851-.73093153-.2184765-.89830571-.5621571-.16737418-.3436807-.12417284-.7527111.11130571-1.0538429l3.289-4.206c.37767789-.4861666.95937406-.7698128 1.575-.768h4.513c.5522847 0 1 .4477153 1 1s-.4477153 1-1 1h-4.513l-3.287 4.206c-.1900138.2429929-.48153555.3846946-.79.384z"/><path id="Shape" d="m51 23h-5c-.5522847 0-1-.4477153-1-1s.4477153-1 1-1h4.513l3.287-4.206c.3439266-.4222729.9625238-.4916875 1.3914872-.1561428.4289635.3355448.5105456.9526552.1835128 1.3881428l-3.589 4.59c-.1891489.2418862-.4789398.3834635-.786.384z"/><path id="Shape" d="m54.59 31.59c-.3077625.0000781-.5984183-.1415612-.788-.384l-3.289-4.206h-4.513c-.5522847 0-1-.4477153-1-1s.4477153-1 1-1h5c.3077625-.0000781.5984183.1415612.788.384l3.589 4.59c.2354785.3011318.2786799.7101622.1113057 1.0538429-.1673742.3436806-.5160356.561872-.8983057.5621571z"/><path id="Shape" d="m12 47h-4.513c-.61562594.0018128-1.19732211-.2818334-1.575-.768l-3.289-4.206c-.34020739-.4354765-.26297651-1.0642926.17250001-1.4045s1.06429258-.2629765 1.40449999.1725l3.287 4.206h4.513c.5522847 0 1 .4477153 1 1s-.4477153 1-1 1z"/><path id="Shape" d="m3.41 55.59c-.38227009-.0002851-.73093153-.2184765-.89830571-.5621571-.16737418-.3436807-.12417284-.7527111.11130571-1.0538429l3.289-4.206c.37767789-.4861666.95937406-.7698128 1.575-.768h4.513c.5522847 0 1 .4477153 1 1s-.4477153 1-1 1h-4.513l-3.287 4.206c-.1900138.2429929-.48153555.3846946-.79.384z"/><path id="Shape" d="m51 47h-5c-.5522847 0-1-.4477153-1-1s.4477153-1 1-1h4.513l3.287-4.206c.3439266-.4222729.9625238-.4916875 1.3914872-.1561428.4289635.3355448.5105456.9526552.1835128 1.3881428l-3.589 4.59c-.1891489.2418862-.4789398.3834635-.786.384z"/><path id="Shape" d="m54.59 55.59c-.3077625.0000781-.5984183-.1415612-.788-.384l-3.289-4.206h-4.513c-.5522847 0-1-.4477153-1-1s.4477153-1 1-1h5c.3077625-.0000781.5984183.1415612.788.384l3.589 4.59c.2354785.3011318.2786799.7101622.1113057 1.0538429-.1673742.3436806-.5160356.561872-.8983057.5621571z"/></g><path id="Shape" d="m46 14v39c0 2.209-7.611 4-17 4s-17-1.791-17-4v-39z" fill="#3f5c6c"/><path id="Shape" d="m12 40c0 2.209 7.611 4 17 4s17-1.791 17-4v-13c0 2.209-7.611 4-17 4s-17-1.791-17-4z" fill="#35495e"/><ellipse id="Oval" cx="29" cy="14" fill="#547580" rx="17" ry="4"/><path id="Shape" d="m32.993 27.282c-.5522847.0151878-1.0123122-.4202153-1.0275-.9725s.4202153-1.0123122.9725-1.0275c2.9671466-.1265774 5.9146591-.5445882 8.8-1.248.5269626-.1281583 1.0600367.1870787 1.2016293.7105915.1415926.5235127-.1599087 1.0644742-.6796293 1.2194085-3.019049.7448585-6.1051249 1.1853915-9.212 1.315z" fill="#35495e"/><path id="Shape" d="m32.993 40.282c-.5522847.0151878-1.0123122-.4202153-1.0275-.9725s.4202153-1.0123122.9725-1.0275c2.9671466-.1265774 5.9146591-.5445882 8.8-1.248.3482204-.1038082.725348-.0105583.9850636.2435703.2597156.2541287.3611434.6291396.2649311.9795348-.0962122.3503951-.3749221.621027-.7279947.7068949-3.019049.7448585-6.1051249 1.1853915-9.212 1.315z" fill="#2c3e50"/><path id="Shape" d="m32.993 53.282c-.5522847.0151878-1.0123122-.4202153-1.0275-.9725s.4202153-1.0123122.9725-1.0275c2.9671466-.1265774 5.9146591-.5445882 8.8-1.248.5269626-.1281583 1.0600367.1870787 1.2016293.7105915.1415926.5235127-.1599087 1.0644742-.6796293 1.2194085-3.019049.7448585-6.1051249 1.1853915-9.212 1.315z" fill="#35495e"/><circle id="Oval" cx="16" cy="20" fill="#f0c419" r="1"/><path id="Shape" d="m16 27c-.5522847 0-1-.4477153-1-1v-2c0-.5522847.4477153-1 1-1s1 .4477153 1 1v2c0 .5522847-.4477153 1-1 1z" fill="#35495e"/><circle id="Oval" cx="16" cy="33" fill="#f0c419" r="1"/><path id="Shape" d="m16 40c-.5522847 0-1-.4477153-1-1v-2c0-.5522847.4477153-1 1-1s1 .4477153 1 1v2c0 .5522847-.4477153 1-1 1z" fill="#2c3e50"/><circle id="Oval" cx="16" cy="46" fill="#f0c419" r="1"/><path id="Shape" d="m16 53c-.5522847 0-1-.4477153-1-1v-2c0-.5522847.4477153-1 1-1s1 .4477153 1 1v2c0 .5522847-.4477153 1-1 1z" fill="#35495e"/><circle id="Oval" cx="2" cy="16" fill="#ff5364" r="2"/><circle id="Oval" cx="2" cy="32" fill="#ff5364" r="2"/><circle id="Oval" cx="56" cy="16" fill="#ff5364" r="2"/><circle id="Oval" cx="56" cy="32" fill="#ff5364" r="2"/><circle id="Oval" cx="2" cy="40" fill="#ff5364" r="2"/><circle id="Oval" cx="2" cy="56" fill="#ff5364" r="2"/><circle id="Oval" cx="56" cy="40" fill="#ff5364" r="2"/><circle id="Oval" cx="56" cy="56" fill="#ff5364" r="2"/><path id="Shape" d="m17 14c-.5522847 0-1-.4477153-1-1v-4.5l-3.333-2.5h-2.667c-.55228475 0-1-.44771525-1-1s.44771525-1 1-1h2.667c.4326703.0004313.853605.14074285 1.2.4l3.333 2.5c.5024999.37863558.7985915.97081873.8 1.6v4.5c0 .5522847-.4477153 1-1 1z" fill="#f3d55b"/><path id="Shape" d="m24 15c-.5522847 0-1-.4477153-1-1v-7.519l-3.064-2.45c-.2815774-.22229438-.4225033-.57838898-.3693066-.9331716s.292364-.6538854.6267553-.78382041c.3343912-.12993502.7127633-.07079068.9915513.15499201l3.064 2.449c.4758657.37899201.7524649.9546572.751 1.563v7.519c0 .5522847-.4477153 1-1 1z" fill="#f3d55b"/><path id="Shape" d="m41 14c-.5522847 0-1-.4477153-1-1v-4.5c.0014085-.62918127.2975001-1.22136442.8-1.6l3.333-2.5c.3465962-.25887248.7673995-.39914024 1.2-.4h2.667c.5522847 0 1 .44771525 1 1s-.4477153 1-1 1h-2.667l-3.333 2.5v4.5c0 .5522847-.4477153 1-1 1z" fill="#f3d55b"/><path id="Shape" d="m34 15c-.5522847 0-1-.4477153-1-1v-7.519c-.0015494-.60785645.2746659-1.18312086.75-1.562l3.065-2.45c.278788-.22578269.6571601-.28492703.9915513-.15499201.3343913.12993501.5735586.42903779.6267553.78382041s-.0877292.71087722-.3693066.9331716l-3.064 2.45v7.519c0 .5522847-.4477153 1-1 1z" fill="#f3d55b"/><circle id="Oval" cx="8" cy="5" fill="#ff5364" r="2"/><circle id="Oval" cx="19" cy="2" fill="#ff5364" r="2"/><circle id="Oval" cx="50" cy="5" fill="#ff5364" r="2"/><circle id="Oval" cx="39" cy="2" fill="#ff5364" r="2"/></g></g></svg>