<svg height="512" viewBox="0 0 58 58" width="512" xmlns="http://www.w3.org/2000/svg"><g id="Page-1" fill="none" fill-rule="evenodd"><g id="004---Online-Server" fill-rule="nonzero"><path id="Shape" d="m56 11v37h-54v-37c0-2.209139 1.790861-4 4-4h46c2.209139 0 4 1.790861 4 4z" fill="#67b9cc"/><path id="Shape" d="m56 15.21v32.79h-54v-4.99c15.2069909-13.904653 33.847772-23.5012033 54-27.8z" fill="#2fa8cc"/><path id="Shape" d="m52 58h-46c-3.3137085 0-6-2.6862915-6-6v-3c0-.5522847.44771525-1 1-1h56c.5522847 0 1 .4477153 1 1v3c0 3.3137085-2.6862915 6-6 6z" fill="#547580"/><path id="Shape" d="m19 48h20v2c0 1.6568542-1.3431458 3-3 3h-14c-1.6568542 0-3-1.3431458-3-3z" fill="#35495e"/><path id="Shape" d="m14 53h-3c-.5522847 0-1-.4477153-1-1s.4477153-1 1-1h3c.5522847 0 1 .4477153 1 1s-.4477153 1-1 1z" fill="#35495e"/><circle id="Oval" cx="5" cy="52" fill="#f0c419" r="1"/><circle id="Oval" cx="8" cy="52" fill="#ff5364" r="1"/><path id="Shape" d="m45 33v8c0 1.657-7.163 3-16 3s-16-1.343-16-3v-8z" fill="#3f5c6c"/><path id="Shape" d="m42 27.75v3.5c1.89.49 3 1.1 3 1.75 0 1.66-7.16 3-16 3s-16-1.34-16-3c0-.65 1.11-1.26 3-1.75v-3.5z" fill="#35495e"/><g fill="#9fc9d3"><path id="Shape" d="m6 14c-.55228475 0-1-.4477153-1-1v-2c0-.5522847.44771525-1 1-1s1 .4477153 1 1v2c0 .5522847-.44771525 1-1 1z"/><path id="Shape" d="m6 38c-.55228475 0-1-.4477153-1-1v-20c0-.5522847.44771525-1 1-1s1 .4477153 1 1v20c0 .5522847-.44771525 1-1 1z"/><path id="Shape" d="m52 45c-.5522847 0-1-.4477153-1-1v-2c0-.5522847.4477153-1 1-1s1 .4477153 1 1v2c0 .5522847-.4477153 1-1 1z"/><path id="Shape" d="m52 39c-.5522847 0-1-.4477153-1-1v-20c0-.5522847.4477153-1 1-1s1 .4477153 1 1v20c0 .5522847-.4477153 1-1 1z"/></g><circle id="Oval" cx="17" cy="39" fill="#f0c419" r="1"/><circle id="Oval" cx="41" cy="39" fill="#ff5364" r="1"/><path id="Shape" d="m45 18v8c0 1.657-7.163 3-16 3s-16-1.343-16-3v-8z" fill="#3f5c6c"/><path id="Shape" d="m42 12.75v3.5c1.89.49 3 1.1 3 1.75 0 1.66-7.16 3-16 3s-16-1.34-16-3c0-.65 1.11-1.26 3-1.75v-3.5z" fill="#35495e"/><circle id="Oval" cx="17" cy="24" fill="#f0c419" r="1"/><circle id="Oval" cx="41" cy="24" fill="#ff5364" r="1"/><path id="Shape" d="m45 3v8c0 1.657-7.163 3-16 3s-16-1.343-16-3v-8z" fill="#3f5c6c"/><ellipse id="Oval" cx="29" cy="3" fill="#547580" rx="16" ry="3"/><circle id="Oval" cx="17" cy="9" fill="#f0c419" r="1"/><circle id="Oval" cx="41" cy="9" fill="#ff5364" r="1"/></g></g></svg>