<svg height="512" viewBox="0 0 58 58" width="512" xmlns="http://www.w3.org/2000/svg"><g id="Page-1" fill="none" fill-rule="evenodd"><g id="005---Server-Coding" fill-rule="nonzero"><rect id="Rectangle-path" fill="#3f5c6c" height="8" rx="2" width="24" x="34"/><rect id="Rectangle-path" fill="#3f5c6c" height="8" rx="2" width="24" x="34" y="12"/><path id="Shape" d="m38 32h18c1.1032019-.0032948 1.9967052-.8967981 2-2v-4c-.0032948-1.1032019-.8967981-1.9967052-2-2h-20z" fill="#3f5c6c"/><path id="Rectangle-path" d="m36 8h20v4h-20z" fill="#35495e"/><path id="Rectangle-path" d="m36 20h20v4h-20z" fill="#35495e"/><path id="Shape" d="m42 5h-4c-.5522847 0-1-.44771525-1-1s.4477153-1 1-1h4c.5522847 0 1 .44771525 1 1s-.4477153 1-1 1z" fill="#35495e"/><path id="Shape" d="m42 17h-4c-.5522847 0-1-.4477153-1-1s.4477153-1 1-1h4c.5522847 0 1 .4477153 1 1s-.4477153 1-1 1z" fill="#35495e"/><path id="Shape" d="m42 29h-4c-.5522847 0-1-.4477153-1-1s.4477153-1 1-1h4c.5522847 0 1 .4477153 1 1s-.4477153 1-1 1z" fill="#35495e"/><circle id="Oval" cx="54" cy="4" fill="#f0c419" r="1"/><circle id="Oval" cx="54" cy="16" fill="#f0c419" r="1"/><circle id="Oval" cx="54" cy="28" fill="#f0c419" r="1"/><path id="Shape" d="m38 26.08.0003502 23.92h-36.00070039l.00035019-23.92c-.02064321-1.1260935.87396283-2.0564838 2-2.08h32c1.1260372.0235162 2.0206432.9539065 2 2.08z" fill="#67b9cc"/><path id="Shape" d="m38 35.64v14.36h-36v-6.72c4.28-3.24 15.62-9.72 36-7.64z" fill="#2fa8cc"/><path id="Shape" d="m37 58h-34c-1.65685425 0-3-1.3431458-3-3v-4c0-.5522847.44771525-1 1-1h38c.5522847 0 1 .4477153 1 1v4c0 1.6568542-1.3431458 3-3 3z" fill="#547580"/><path id="Shape" d="m22.146 54h-4.292c-1.1361348-.0000386-2.174769-.6418782-2.683-1.658l-1.171-2.342h12l-1.171 2.342c-.508231 1.0161218-1.5468652 1.6579614-2.683 1.658z" fill="#35495e"/><circle id="Oval" cx="4" cy="54" fill="#ff5364" r="1"/><circle id="Oval" cx="8" cy="54" fill="#f0c419" r="1"/><path id="Shape" d="m6 32c-.4043959-.0000863-.76893405-.2437275-.92367798-.6173454-.15474393-.373618-.06922994-.8036603.21667798-1.0896546l3-3c.39237889-.3789722 1.01608478-.3735524 1.40181858.0121814.38573382.3857338.39115362 1.0094397.01218142 1.4018186l-3 3c-.18749273.1875494-.44180519.2929434-.707.293z" fill="#9fc9d3"/><path id="Shape" d="m6 38c-.4043959-.0000863-.76893405-.2437275-.92367798-.6173454-.15474393-.373618-.06922994-.8036603.21667798-1.0896546l9-9c.3923789-.3789722 1.0160848-.3735524 1.4018186.0121814s.3911536 1.0094397.0121814 1.4018186l-9 9c-.18749273.1875494-.44180519.2929434-.707.293z" fill="#9fc9d3"/><path id="Shape" d="m21 36h-2c-1.1045695 0-2-.8954305-2-2v-3c0-1.1045695.8954305-2 2-2h2c1.1045695 0 2 .8954305 2 2v3c0 1.1045695-.8954305 2-2 2zm-2-5v3h2v-3z" fill="#955ba5"/><path id="Shape" d="m33 36h-2c-1.1045695 0-2-.8954305-2-2v-3c0-1.1045695.8954305-2 2-2h2c1.1045695 0 2 .8954305 2 2v3c0 1.1045695-.8954305 2-2 2zm-2-5v3h2v-3z" fill="#955ba5"/><path id="Shape" d="m26 36c-.5522847 0-1-.4477153-1-1v-5c0-.5522847.4477153-1 1-1s1 .4477153 1 1v5c0 .5522847-.4477153 1-1 1z" fill="#3d324c"/><path id="Shape" d="m13 46h-2c-1.1045695 0-2-.8954305-2-2v-3c0-1.1045695.8954305-2 2-2h2c1.1045695 0 2 .8954305 2 2v3c0 1.1045695-.8954305 2-2 2zm-2-5v3h2v-3z" fill="#955ba5"/><path id="Shape" d="m25 46h-2c-1.1045695 0-2-.8954305-2-2v-3c0-1.1045695.8954305-2 2-2h2c1.1045695 0 2 .8954305 2 2v3c0 1.1045695-.8954305 2-2 2zm-2-5v3h2v-3z" fill="#955ba5"/><path id="Shape" d="m18 46c-.5522847 0-1-.4477153-1-1v-5c0-.5522847.4477153-1 1-1s1 .4477153 1 1v5c0 .5522847-.4477153 1-1 1z" fill="#3d324c"/><path id="Shape" d="m30 46c-.5522847 0-1-.4477153-1-1v-5c0-.5522847.4477153-1 1-1s1 .4477153 1 1v5c0 .5522847-.4477153 1-1 1z" fill="#3d324c"/><path id="Shape" d="m34 46c-.5522847 0-1-.4477153-1-1v-5c0-.5522847.4477153-1 1-1s1 .4477153 1 1v5c0 .5522847-.4477153 1-1 1z" fill="#3d324c"/><g fill="#955ba5"><circle id="Oval" cx="14" cy="20" r="1"/><circle id="Oval" cx="14" cy="16" r="1"/><circle id="Oval" cx="14" cy="12" r="1"/><circle id="Oval" cx="14" cy="8" r="1"/><circle id="Oval" cx="14" cy="4" r="1"/><circle id="Oval" cx="18" cy="4" r="1"/><circle id="Oval" cx="22" cy="4" r="1"/><circle id="Oval" cx="26" cy="4" r="1"/><circle id="Oval" cx="30" cy="4" r="1"/><circle id="Oval" cx="52" cy="36" r="1"/><circle id="Oval" cx="52" cy="40" r="1"/><circle id="Oval" cx="52" cy="44" r="1"/><circle id="Oval" cx="52" cy="48" r="1"/><circle id="Oval" cx="52" cy="52" r="1"/><circle id="Oval" cx="48" cy="52" r="1"/><circle id="Oval" cx="44" cy="52" r="1"/></g></g></g></svg>