<svg height="512" viewBox="0 0 58 58" width="512" xmlns="http://www.w3.org/2000/svg"><g id="Page-1" fill="none" fill-rule="evenodd"><g id="006---Network" fill-rule="nonzero"><g fill="#ff5364"><path id="Shape" d="m9 47c-.55228475 0-1-.4477153-1-1v-2c0-.5522847.44771525-1 1-1s1 .4477153 1 1v2c0 .5522847-.44771525 1-1 1z"/><path id="Shape" d="m49 47c-.5522847 0-1-.4477153-1-1v-2c0-.5522847.4477153-1 1-1s1 .4477153 1 1v2c0 .5522847-.4477153 1-1 1z"/><path id="Shape" d="m29 47c-.5522847 0-1-.4477153-1-1v-2c0-.5522847.4477153-1 1-1s1 .4477153 1 1v2c0 .5522847-.4477153 1-1 1z"/><path id="Shape" d="m29 37c-.5522847 0-1-.4477153-1-1v-2c0-.5522847.4477153-1 1-1s1 .4477153 1 1v2c0 .5522847-.4477153 1-1 1z"/><circle id="Oval" cx="29" cy="40" r="1"/><circle id="Oval" cx="25" cy="40" r="1"/><circle id="Oval" cx="21" cy="40" r="1"/><circle id="Oval" cx="17" cy="40" r="1"/><circle id="Oval" cx="13" cy="40" r="1"/><circle id="Oval" cx="9" cy="40" r="1"/><circle id="Oval" cx="33" cy="40" r="1"/><circle id="Oval" cx="37" cy="40" r="1"/><circle id="Oval" cx="41" cy="40" r="1"/><circle id="Oval" cx="45" cy="40" r="1"/><circle id="Oval" cx="49" cy="40" r="1"/></g><path id="Shape" d="m13 21v8c0 2.761 7.163 5 16 5s16-2.239 16-5v-8z" fill="#3f5c6c"/><path id="Shape" d="m13 13v8c0 2.761 7.163 5 16 5s16-2.239 16-5v-8z" fill="#35495e"/><path id="Shape" d="m13 5v8c0 2.761 7.163 5 16 5s16-2.239 16-5v-8z" fill="#3f5c6c"/><ellipse id="Oval" cx="29" cy="5" fill="#547580" rx="16" ry="5"/><circle id="Oval" cx="17" cy="12" fill="#f0c419" r="1"/><circle id="Oval" cx="17" cy="20" fill="#f0c419" r="1"/><circle id="Oval" cx="17" cy="28" fill="#f0c419" r="1"/><circle id="Oval" cx="41" cy="12" fill="#ff5364" r="1"/><circle id="Oval" cx="41" cy="20" fill="#ff5364" r="1"/><circle id="Oval" cx="41" cy="28" fill="#ff5364" r="1"/><rect id="Rectangle-path" fill="#67b9cc" height="12" rx="2" width="16" y="46"/><rect id="Rectangle-path" fill="#67b9cc" height="12" rx="2" width="16" x="21" y="46"/><rect id="Rectangle-path" fill="#67b9cc" height="12" rx="2" width="16" x="42" y="46"/><path id="Shape" d="m16 48v2h-16v-2c.0032948-1.1032019.89679813-1.9967052 2-2h12c1.1032019.0032948 1.9967052.8967981 2 2z" fill="#2fa8cc"/><path id="Shape" d="m6 50v8h-4c-1.10320187-.0032948-1.9967052-.8967981-2-2v-6z" fill="#955ba5"/><path id="Shape" d="m37 48v2h-16v-2c.0032948-1.1032019.8967981-1.9967052 2-2h12c1.1032019.0032948 1.9967052.8967981 2 2z" fill="#2fa8cc"/><path id="Shape" d="m27 50v8h-4c-1.1032019-.0032948-1.9967052-.8967981-2-2v-6z" fill="#955ba5"/><path id="Shape" d="m58 48v2h-16v-2c.0032948-1.1032019.8967981-1.9967052 2-2h12c1.1032019.0032948 1.9967052.8967981 2 2z" fill="#2fa8cc"/><path id="Shape" d="m48 50v8h-4c-1.1032019-.0032948-1.9967052-.8967981-2-2v-6z" fill="#955ba5"/></g></g></svg>