<svg height="512" viewBox="0 0 58 58" width="512" xmlns="http://www.w3.org/2000/svg"><g id="Page-1" fill="none" fill-rule="evenodd"><g id="007---Server-Analytics" fill-rule="nonzero"><path id="Shape" d="m56 11v37h-54v-37c0-2.209139 1.790861-4 4-4h46c2.209139 0 4 1.790861 4 4z" fill="#67b9cc"/><path id="Shape" d="m56 20.44v27.56h-54v-12.24c6.95-5.3 25.75-17.05 54-15.32z" fill="#2fa8cc"/><path id="Shape" d="m52 58h-46c-3.3137085 0-6-2.6862915-6-6v-3c0-.5522847.44771525-1 1-1h56c.5522847 0 1 .4477153 1 1v3c0 3.3137085-2.6862915 6-6 6z" fill="#547580"/><path id="Shape" d="m19 48h20v2c0 1.6568542-1.3431458 3-3 3h-14c-1.6568542 0-3-1.3431458-3-3z" fill="#35495e"/><path id="Shape" d="m14 53h-3c-.5522847 0-1-.4477153-1-1s.4477153-1 1-1h3c.5522847 0 1 .4477153 1 1s-.4477153 1-1 1z" fill="#35495e"/><circle id="Oval" cx="5" cy="52" fill="#ff5364" r="1"/><circle id="Oval" cx="8" cy="52" fill="#f0c419" r="1"/><path id="Shape" d="m6 4v24c0 2.21 5.37 4 12 4s12-1.79 12-4v-24z" fill="#3f5c6c"/><g fill="#f0c419"><path id="Shape" d="m9 40h2c.5522847 0 1 .4477153 1 1v3h-4v-3c0-.5522847.44771525-1 1-1z"/><path id="Shape" d="m17 37h2c.5522847 0 1 .4477153 1 1v6h-4v-6c0-.5522847.4477153-1 1-1z"/><path id="Shape" d="m25 35h2c.5522847 0 1 .4477153 1 1v8h-4v-8c0-.5522847.4477153-1 1-1z"/><circle id="Oval" cx="35" cy="12" r="1"/></g><circle id="Oval" cx="10" cy="11" fill="#ff5364" r="1"/><circle id="Oval" cx="10" cy="27" fill="#ff5364" r="1"/><path id="Shape" d="m43 13h-4c-.5522847 0-1-.4477153-1-1s.4477153-1 1-1h4c.5522847 0 1 .4477153 1 1s-.4477153 1-1 1z" fill="#3d324c"/><path id="Shape" d="m51 13h-4c-.5522847 0-1-.4477153-1-1s.4477153-1 1-1h4c.5522847 0 1 .4477153 1 1s-.4477153 1-1 1z" fill="#3d324c"/><circle id="Oval" cx="35" cy="17" fill="#f0c419" r="1"/><path id="Shape" d="m40 18h-1c-.5522847 0-1-.4477153-1-1s.4477153-1 1-1h1c.5522847 0 1 .4477153 1 1s-.4477153 1-1 1z" fill="#3d324c"/><path id="Shape" d="m51 18h-7c-.5522847 0-1-.4477153-1-1s.4477153-1 1-1h7c.5522847 0 1 .4477153 1 1s-.4477153 1-1 1z" fill="#3d324c"/><circle id="Oval" cx="35" cy="22" fill="#f0c419" r="1"/><path id="Shape" d="m43 23h-4c-.5522847 0-1-.4477153-1-1s.4477153-1 1-1h4c.5522847 0 1 .4477153 1 1s-.4477153 1-1 1z" fill="#3d324c"/><path id="Shape" d="m51 23h-4c-.5522847 0-1-.4477153-1-1s.4477153-1 1-1h4c.5522847 0 1 .4477153 1 1s-.4477153 1-1 1z" fill="#3d324c"/><circle id="Oval" cx="35" cy="27" fill="#f0c419" r="1"/><path id="Shape" d="m46 28h-7c-.5522847 0-1-.4477153-1-1s.4477153-1 1-1h7c.5522847 0 1 .4477153 1 1s-.4477153 1-1 1z" fill="#3d324c"/><path id="Shape" d="m51 28h-1c-.5522847 0-1-.4477153-1-1s.4477153-1 1-1h1c.5522847 0 1 .4477153 1 1s-.4477153 1-1 1z" fill="#3d324c"/><circle id="Oval" cx="35" cy="32" fill="#f0c419" r="1"/><path id="Shape" d="m41 33h-2c-.5522847 0-1-.4477153-1-1s.4477153-1 1-1h2c.5522847 0 1 .4477153 1 1s-.4477153 1-1 1z" fill="#3d324c"/><path id="Shape" d="m51 33h-6c-.5522847 0-1-.4477153-1-1s.4477153-1 1-1h6c.5522847 0 1 .4477153 1 1s-.4477153 1-1 1z" fill="#3d324c"/><circle id="Oval" cx="35" cy="37" fill="#f0c419" r="1"/><path id="Shape" d="m43 38h-4c-.5522847 0-1-.4477153-1-1s.4477153-1 1-1h4c.5522847 0 1 .4477153 1 1s-.4477153 1-1 1z" fill="#3d324c"/><path id="Shape" d="m51 38h-4c-.5522847 0-1-.4477153-1-1s.4477153-1 1-1h4c.5522847 0 1 .4477153 1 1s-.4477153 1-1 1z" fill="#3d324c"/><circle id="Oval" cx="35" cy="42" fill="#f0c419" r="1"/><path id="Shape" d="m43 43h-4c-.5522847 0-1-.4477153-1-1s.4477153-1 1-1h4c.5522847 0 1 .4477153 1 1s-.4477153 1-1 1z" fill="#3d324c"/><path id="Shape" d="m51 43h-4c-.5522847 0-1-.4477153-1-1s.4477153-1 1-1h4c.5522847 0 1 .4477153 1 1s-.4477153 1-1 1z" fill="#3d324c"/><path id="Shape" d="m6 20c0 2.209 5.373 4 12 4s12-1.791 12-4v-8c0 2.209-5.373 4-12 4s-12-1.791-12-4z" fill="#35495e"/><circle id="Oval" cx="10" cy="19" fill="#ff5364" r="1"/><path id="Shape" d="m30 4c0 1.2-1.58 2.27-4.07 3-2.584676.69689441-5.2532304 1.0334082-7.93 1-6.63 0-12-1.79-12-4s5.37-4 12-4 12 1.79 12 4z" fill="#547580"/><path id="Shape" d="m30 45h-24c-.55228475 0-1-.4477153-1-1s.44771525-1 1-1h24c.5522847 0 1 .4477153 1 1s-.4477153 1-1 1z" fill="#285680"/></g></g></svg>