<svg height="512" viewBox="0 0 58 58" width="512" xmlns="http://www.w3.org/2000/svg"><g id="Page-1" fill="none" fill-rule="evenodd"><g id="008---Drive" fill-rule="nonzero"><path id="Shape" d="m24 8h30c2.209139 0 4 1.790861 4 4v42c0 2.209139-1.790861 4-4 4h-30c-2.209139 0-4-1.790861-4-4v-23.02z" fill="#35495e"/><path id="Shape" d="m50.51 30.04c4.0464334 5.8498035 3.0671722 13.8034003-2.2773802 18.4969687s-13.3580093 4.6373474-18.6361803-.1307483c-5.2781709-4.7680956-6.1457391-12.7346493-2.0176257-18.5271017 4.1281134-5.7924523 11.9416255-7.572251 18.1711862-4.1391187z" fill="#95a5a5"/><path id="Shape" d="m44.3 35.18c1.3303277 2.4976963.7346038 5.5853598-1.4294421 7.4088629-2.164046 1.823503-5.3080111 1.8870361-7.5439587.1524478-2.2359477-1.7345882-2.9559249-4.7956642-1.7275887-7.3450658 1.2283363-2.5494015 4.071002-3.8939478 6.8209895-3.2262449z" fill="#7f8c8d"/><g fill="#95a5a5"><circle id="Oval" cx="52" cy="14" r="2"/><circle id="Oval" cx="52" cy="53" r="2"/><circle id="Oval" cx="26" cy="53" r="2"/></g><path id="Shape" d="m24 12h16c1.1045695 0 2 .8954305 2 2v2c0 1.1045695-.8954305 2-2 2h-6.29c-1.5319451-.0059448-3.0476961.3134298-4.447.937-2.0665813.8927639-3.8761542 2.2897419-5.263 4.063z" fill="#bdc3c7"/><path id="Shape" d="m0 4v24c0 2.21 5.37 4 12 4s12-1.79 12-4v-24z" fill="#955ba5"/><path id="Shape" d="m0 20c0 2.209 5.373 4 12 4s12-1.791 12-4v-8c0 2.209-5.373 4-12 4s-12-1.791-12-4z" fill="#894b9d"/><circle id="Oval" cx="4" cy="11" fill="#ff5364" r="1"/><circle id="Oval" cx="4" cy="19" fill="#ff5364" r="1"/><circle id="Oval" cx="4" cy="27" fill="#ff5364" r="1"/><path id="Shape" d="m24 4c0 1.2-1.58 2.27-4.07 3-2.584676.69689441-5.2532304 1.0334082-7.93 1-6.63 0-12-1.79-12-4s5.37-4 12-4 12 1.79 12 4z" fill="#b49aca"/><path id="Shape" d="m52.438 28.438-12.024 9.976c-.7978539.6644657-1.9706945.6110851-2.7048898-.1231102s-.7875759-1.9070359-.1231102-2.7048898l9.976-12.024c1.2211016-1.4715627 3.4039373-1.6746016 4.8755-.4535s1.6746016 3.4039373.4535 4.8755c-.1377074.1640384-.2892657.3159312-.453.454z" fill="#bdc3c7"/></g></g></svg>