<svg height="512" viewBox="0 0 58 58" width="512" xmlns="http://www.w3.org/2000/svg"><g id="Page-1" fill="none" fill-rule="evenodd"><g id="009---Cloud-Server" fill-rule="nonzero"><path id="Shape" d="m32 3v36.26l-3 18.74h-26c-1.65685425 0-3-1.3431458-3-3v-52c0-1.65685425 1.34314575-3 3-3h26c1.6568542 0 3 1.34314575 3 3z" fill="#67b9cc"/><path id="Shape" d="m32 22.39v16.87l-3 18.74h-26c-1.65685425 0-3-1.3431458-3-3v-17.44c5-6.02 14.56-13.35 32-15.17z" fill="#2fa8cc"/><path id="Shape" d="m26 0-2.861 3.052c-.5672653.60498515-1.3596648.94815313-2.189.948h-9.9c-.8293352.00015313-1.62173471-.34301485-2.189-.948l-2.861-3.052z" fill="#35495e"/><path id="Shape" d="m4 12v24c0 2.21 5.37 4 12 4s12-1.79 12-4v-24z" fill="#3f5c6c"/><g fill="#ff5364"><circle id="Oval" cx="36" cy="15" r="1"/><circle id="Oval" cx="40" cy="15" r="1"/><circle id="Oval" cx="44" cy="15" r="1"/><circle id="Oval" cx="44" cy="19" r="1"/><circle id="Oval" cx="44" cy="23" r="1"/><circle id="Oval" cx="44" cy="27" r="1"/><circle id="Oval" cx="44" cy="31" r="1"/></g><path id="Shape" d="m29.8 53-.8 5h-26c-1.65685425 0-3-1.3431458-3-3v-5c0 1.6568542 1.34314575 3 3 3z" fill="#35495e"/><path id="Shape" d="m4 28c0 2.209 5.373 4 12 4s12-1.791 12-4v-8c0 2.209-5.373 4-12 4s-12-1.791-12-4z" fill="#35495e"/><circle id="Oval" cx="8" cy="19" fill="#ff5364" r="1"/><circle id="Oval" cx="8" cy="27" fill="#ff5364" r="1"/><circle id="Oval" cx="8" cy="35" fill="#ff5364" r="1"/><path id="Shape" d="m28 12c0 1.2-1.58 2.27-4.07 3-2.584676.6968944-5.2532304 1.0334082-7.93 1-6.63 0-12-1.79-12-4s5.37-4 12-4 12 1.79 12 4z" fill="#547580"/><path id="Shape" d="m43.285 35c4.357534.0874978 7.9930739 3.3545478 8.544 7.678 3.8165744.7944806 6.448279 4.3012476 6.1446504 8.1877949-.3036286 3.8865472-3.4479987 6.9420702-7.3416504 7.1342051h-23.455c-3.454186-.1607716-6.1720465-3.0080745-6.1720465-6.466s2.7178605-6.3052284 6.1720465-6.466h.126c.4353699-3.4798306 3.3587431-6.1127828 6.865-6.183.6262122-.000599 1.2493692.0872691 1.851.261 1.5323659-2.5554552 4.2863806-4.1269037 7.266-4.146z" fill="#ecf0f1"/><path id="Shape" d="m28 55h-2c-.5522847 0-1-.4477153-1-1s.4477153-1 1-1h2c.5522847 0 1 .4477153 1 1s-.4477153 1-1 1z" fill="#bdc3c7"/><path id="Shape" d="m52 55h-20c-.5522847 0-1-.4477153-1-1s.4477153-1 1-1h20c.5522847 0 1 .4477153 1 1s-.4477153 1-1 1z" fill="#bdc3c7"/></g></g></svg>