<svg height="512" viewBox="0 0 58 58" width="512" xmlns="http://www.w3.org/2000/svg"><g id="Page-1" fill="none" fill-rule="evenodd"><g id="010---Network" fill-rule="nonzero"><path id="Shape" d="m56 11v37h-54v-37c0-2.209139 1.790861-4 4-4h46c2.209139 0 4 1.790861 4 4z" fill="#67b9cc"/><path id="Shape" d="m56 25.68v22.32h-54v-10.69c8.16-7.25 25.13-17.11 54-11.63z" fill="#2fa8cc"/><path id="Shape" d="m52 58h-46c-3.3137085 0-6-2.6862915-6-6v-3c0-.5522847.44771525-1 1-1h56c.5522847 0 1 .4477153 1 1v3c0 3.3137085-2.6862915 6-6 6z" fill="#547580"/><path id="Shape" d="m19 48h20v2c0 1.6568542-1.3431458 3-3 3h-14c-1.6568542 0-3-1.3431458-3-3z" fill="#35495e"/><path id="Shape" d="m14 53h-3c-.5522847 0-1-.4477153-1-1s.4477153-1 1-1h3c.5522847 0 1 .4477153 1 1s-.4477153 1-1 1z" fill="#35495e"/><circle id="Oval" cx="5" cy="52" fill="#f0c419" r="1"/><circle id="Oval" cx="8" cy="52" fill="#ff5364" r="1"/><path id="Shape" d="m44 35h-14v-3c0-.5522847-.4477153-1-1-1s-1 .4477153-1 1v3h-14c-1.6568542 0-3 1.3431458-3 3v2c0 .5522847.4477153 1 1 1s1-.4477153 1-1v-2c0-.5522847.4477153-1 1-1h14v3c0 .5522847.4477153 1 1 1s1-.4477153 1-1v-3h14c.5522847 0 1 .4477153 1 1v2c0 .5522847.4477153 1 1 1s1-.4477153 1-1v-2c0-1.6568542-1.3431458-3-3-3z" fill="#285680"/><g fill="#9fc9d3"><path id="Shape" d="m6 14c-.55228475 0-1-.4477153-1-1v-2c0-.5522847.44771525-1 1-1s1 .4477153 1 1v2c0 .5522847-.44771525 1-1 1z"/><path id="Shape" d="m6 32c-.55228475 0-1-.4477153-1-1v-14c0-.5522847.44771525-1 1-1s1 .4477153 1 1v14c0 .5522847-.44771525 1-1 1z"/><path id="Shape" d="m52 14c-.5522847 0-1-.4477153-1-1v-2c0-.5522847.4477153-1 1-1s1 .4477153 1 1v2c0 .5522847-.4477153 1-1 1z"/><path id="Shape" d="m52 32c-.5522847 0-1-.4477153-1-1v-14c0-.5522847.4477153-1 1-1s1 .4477153 1 1v14c0 .5522847-.4477153 1-1 1z"/></g><path id="Shape" d="m17 4v24c0 2.21 5.37 4 12 4s12-1.79 12-4v-24z" fill="#3f5c6c"/><path id="Shape" d="m17 20c0 2.209 5.373 4 12 4s12-1.791 12-4v-8c0 2.209-5.373 4-12 4s-12-1.791-12-4z" fill="#35495e"/><circle id="Oval" cx="21" cy="11" fill="#ff5364" r="1"/><circle id="Oval" cx="21" cy="19" fill="#ff5364" r="1"/><circle id="Oval" cx="21" cy="27" fill="#ff5364" r="1"/><path id="Shape" d="m41 4c0 1.2-1.58 2.27-4.07 3-2.584676.69689441-5.2532304 1.0334082-7.93 1-6.63 0-12-1.79-12-4s5.37-4 12-4 12 1.79 12 4z" fill="#547580"/><rect id="Rectangle-path" fill="#f0c419" height="4" rx="1" width="10" x="7" y="40"/><rect id="Rectangle-path" fill="#f0c419" height="4" rx="1" width="10" x="24" y="40"/><rect id="Rectangle-path" fill="#f0c419" height="4" rx="1" width="10" x="41" y="40"/></g></g></svg>