<svg height="512" viewBox="0 0 58 58" width="512" xmlns="http://www.w3.org/2000/svg"><g id="Page-1" fill="none" fill-rule="evenodd"><g id="011---Cloud" fill-rule="nonzero"><path id="Shape" d="m34 45h-4v-16c0-.5522847-.4477153-1-1-1s-1 .4477153-1 1v16h-4c-.5522847 0-1 .4477153-1 1s.4477153 1 1 1h10c.5522847 0 1-.4477153 1-1s-.4477153-1-1-1z" fill="#955ba5"/><path id="Shape" d="m27.95 0c-4.5950948.02050088-8.5004797 3.363138-9.23 7.9-2.9644476.03162583-5.6018822 1.88936635-6.63 4.67h.04c-4.28459934.5921037-7.38543851 4.3913628-7.10696467 8.7077074.27847385 4.3163446 3.84180153 7.6856574 8.16696467 7.7222926h31.62c4.0527425-.0335683 7.4824539-3.0025462 8.0962959-7.0086724.6138419-4.0061262-1.7695408-7.8658201-5.6262959-9.1113276-.0278828-4.40505057-3.594918-7.96762702-8-7.99-.9781086-.00396046-1.9482596.17582277-2.86.53-1.5320973-3.29744488-4.8340171-5.41036165-8.47-5.42z" fill="#f0c419"/><rect id="Rectangle-path" fill="#547580" height="8" rx="2" width="24" y="50"/><path id="Shape" d="m8 55h-4c-.55228475 0-1-.4477153-1-1s.44771525-1 1-1h4c.55228475 0 1 .4477153 1 1s-.44771525 1-1 1z" fill="#3f5c6c"/><circle id="Oval" cx="20" cy="54" fill="#ff5364" r="1"/><rect id="Rectangle-path" fill="#3f5c6c" height="8" rx="2" width="24" y="42"/><path id="Shape" d="m8 47h-4c-.55228475 0-1-.4477153-1-1s.44771525-1 1-1h4c.55228475 0 1 .4477153 1 1s-.44771525 1-1 1z" fill="#35495e"/><circle id="Oval" cx="20" cy="46" fill="#ff5364" r="1"/><rect id="Rectangle-path" fill="#547580" height="8" rx="2" width="24" y="34"/><path id="Shape" d="m8 39h-4c-.55228475 0-1-.4477153-1-1s.44771525-1 1-1h4c.55228475 0 1 .4477153 1 1s-.44771525 1-1 1z" fill="#3f5c6c"/><circle id="Oval" cx="20" cy="38" fill="#ff5364" r="1"/><rect id="Rectangle-path" fill="#547580" height="8" rx="2" width="24" x="34" y="50"/><path id="Shape" d="m42 55h-4c-.5522847 0-1-.4477153-1-1s.4477153-1 1-1h4c.5522847 0 1 .4477153 1 1s-.4477153 1-1 1z" fill="#3f5c6c"/><circle id="Oval" cx="54" cy="54" fill="#ff5364" r="1"/><rect id="Rectangle-path" fill="#3f5c6c" height="8" rx="2" width="24" x="34" y="42"/><path id="Shape" d="m42 47h-4c-.5522847 0-1-.4477153-1-1s.4477153-1 1-1h4c.5522847 0 1 .4477153 1 1s-.4477153 1-1 1z" fill="#35495e"/><circle id="Oval" cx="54" cy="46" fill="#ff5364" r="1"/><rect id="Rectangle-path" fill="#547580" height="8" rx="2" width="24" x="34" y="34"/><path id="Shape" d="m42 39h-4c-.5522847 0-1-.4477153-1-1s.4477153-1 1-1h4c.5522847 0 1 .4477153 1 1s-.4477153 1-1 1z" fill="#3f5c6c"/><circle id="Oval" cx="54" cy="38" fill="#ff5364" r="1"/></g></g></svg>