<svg height="512" viewBox="0 0 58 58" width="512" xmlns="http://www.w3.org/2000/svg"><g id="Page-1" fill="none" fill-rule="evenodd"><g id="012---Transfering-Data" fill-rule="nonzero"><path id="Shape" d="m56 11v37h-54v-37c0-2.209139 1.790861-4 4-4h46c2.209139 0 4 1.790861 4 4z" fill="#67b9cc"/><path id="Shape" d="m56 24.01v23.99h-54v-9.42c3.71-4.75 18.39-19.59 54-14.57z" fill="#2fa8cc"/><path id="Shape" d="m52 58h-46c-3.3137085 0-6-2.6862915-6-6v-3c0-.5522847.44771525-1 1-1h56c.5522847 0 1 .4477153 1 1v3c0 3.3137085-2.6862915 6-6 6z" fill="#547580"/><path id="Shape" d="m19 48h20v2c0 1.6568542-1.3431458 3-3 3h-14c-1.6568542 0-3-1.3431458-3-3z" fill="#35495e"/><path id="Shape" d="m14 53h-3c-.5522847 0-1-.4477153-1-1s.4477153-1 1-1h3c.5522847 0 1 .4477153 1 1s-.4477153 1-1 1z" fill="#35495e"/><circle id="Oval" cx="5" cy="52" fill="#f0c419" r="1"/><circle id="Oval" cx="8" cy="52" fill="#ff5364" r="1"/><path id="Shape" d="m17 4v24c0 2.21 5.37 4 12 4s12-1.79 12-4v-24z" fill="#3f5c6c"/><g fill="#9fc9d3"><path id="Shape" d="m6 14c-.55228475 0-1-.4477153-1-1v-2c0-.5522847.44771525-1 1-1s1 .4477153 1 1v2c0 .5522847-.44771525 1-1 1z"/><path id="Shape" d="m6 32c-.55228475 0-1-.4477153-1-1v-14c0-.5522847.44771525-1 1-1s1 .4477153 1 1v14c0 .5522847-.44771525 1-1 1z"/><path id="Shape" d="m52 14c-.5522847 0-1-.4477153-1-1v-2c0-.5522847.4477153-1 1-1s1 .4477153 1 1v2c0 .5522847-.4477153 1-1 1z"/><path id="Shape" d="m52 32c-.5522847 0-1-.4477153-1-1v-14c0-.5522847.4477153-1 1-1s1 .4477153 1 1v14c0 .5522847-.4477153 1-1 1z"/></g><path id="Shape" d="m23.443 37h-12.886c-.2154524-.0162595-.417922.1044824-.5060278.3017677-.08810579.1972853-.0428816.428645.1130278.5782323l6.443 5.969c.2235122.2008362.5624878.2008362.786 0l6.443-5.969c.1559094-.1495873.2011336-.380947.1130278-.5782323s-.2905754-.3180272-.5060278-.3017677z" fill="#f0c419"/><path id="Shape" d="m47.443 44h-12.886c-.2154524.0162595-.417922-.1044824-.5060278-.3017677s-.0428816-.428645.1130278-.5782323l6.443-5.969c.2235122-.2008362.5624878-.2008362.786 0l6.443 5.969c.1559094.1495873.2011336.380947.1130278.5782323s-.2905754.3180272-.5060278.3017677z" fill="#f0c419"/><circle id="Oval" cx="21" cy="11" fill="#ff5364" r="1"/><circle id="Oval" cx="21" cy="27" fill="#ff5364" r="1"/><path id="Shape" d="m17 20c0 2.209 5.373 4 12 4s12-1.791 12-4v-8c0 2.209-5.373 4-12 4s-12-1.791-12-4z" fill="#35495e"/><circle id="Oval" cx="21" cy="19" fill="#ff5364" r="1"/><path id="Shape" d="m41 4c0 1.2-1.58 2.27-4.07 3-2.584676.69689441-5.2532304 1.0334082-7.93 1-6.63 0-12-1.79-12-4s5.37-4 12-4 12 1.79 12 4z" fill="#547580"/></g></g></svg>