<svg height="512" viewBox="0 0 58 58" width="512" xmlns="http://www.w3.org/2000/svg"><g id="Page-1" fill="none" fill-rule="evenodd"><g id="013---Online" fill-rule="nonzero"><circle id="Oval" cx="29" cy="29" fill="#67b9cc" r="29"/><path id="Shape" d="m44.84 45c2.1273935-5.063876 3.2025222-10.5075656 3.16-16 .0425222-5.4924344-1.0326065-10.936124-3.16-16h7.65c.2088542.0014458.4124825-.06526.58-.19-.42-.62-.86-1.22-1.34-1.81h-7.85c-3.087-5.934-8.287-11-14.88-11s-11.8 5.079-14.88 11h-7.85c-.48.59-.92 1.19-1.34 1.81.1675175.12474.37114578.1914458.58.19h7.65c-2.1273935 5.063876-3.20252217 10.5075656-3.16 16-.04252217 5.4924344 1.0326065 10.936124 3.16 16h-7.65c-.20885422-.0014458-.4124825.06526-.58.19.42.62.86 1.22 1.34 1.81h7.85c3.087 5.934 8.287 11 14.88 11s11.8-5.081 14.88-11h7.85c.48-.59.92-1.19 1.34-1.81-.1675175-.12474-.3711458-.1914458-.58-.19zm-14.84-42.95c4.62.43 8.75 3.8 11.66 8.95h-11.66zm-2 0v8.95h-11.66c2.91-5.15 7.04-8.52 11.66-8.95zm14.41 43.51c-.01.03-.03.05-.04.08-3.11 6.3-7.95 10.36-13.37 10.36s-10.24-4.04-13.36-10.33c-.0206012-.0561564-.0474356-.1098252-.08-.16-2.4091856-5.1669213-3.6258543-10.8093935-3.56-16.51-.0599508-5.5103315 1.0726072-10.9684423 3.32-16h27.36c2.2473928 5.0315577 3.3799508 10.4896685 3.32 16 .0682051 5.7201715-1.1591212 11.3815985-3.59 16.56z" fill="#2fa8cc"/><rect id="Rectangle-path" fill="#547580" height="8" rx="2" width="22" x="18" y="17"/><rect id="Rectangle-path" fill="#3f5c6c" height="8" rx="2" width="22" x="18" y="25"/><rect id="Rectangle-path" fill="#547580" height="8" rx="2" width="22" x="18" y="33"/><g fill="#f0c419"><circle id="Oval" cx="22" cy="21" r="1"/><circle id="Oval" cx="22" cy="29" r="1"/><circle id="Oval" cx="22" cy="37" r="1"/></g><circle id="Oval" cx="29" cy="45" fill="#955ba5" r="1"/><circle id="Oval" cx="29" cy="49" fill="#955ba5" r="1"/><circle id="Oval" cx="29" cy="53" fill="#955ba5" r="1"/></g></g></svg>