<svg height="512" viewBox="0 0 58 58" width="512" xmlns="http://www.w3.org/2000/svg"><g id="Page-1" fill="none" fill-rule="evenodd"><g id="014---Protected-Server" fill-rule="nonzero"><path id="Shape" d="m40 4v40c0 2.21-8.95 4-20 4s-20-1.79-20-4v-40z" fill="#3f5c6c"/><ellipse id="Oval" cx="20" cy="4" fill="#547580" rx="20" ry="4"/><path id="Shape" d="m0 30c0 2.209 8.954 4 20 4s20-1.791 20-4v-13c0 2.209-8.954 4-20 4s-20-1.791-20-4z" fill="#35495e"/><path id="Shape" d="m27.97 17.231c-.5522847.023196-1.018804-.4057153-1.042-.958s.4057153-1.018804.958-1.042c2.6497678-.1928699 5.2802325-.5941102 7.867-1.2.5338367-.1329664 1.0748187.1902488 1.210707.7233492.1358884.5331004-.1843589 1.0758446-.716707 1.2146508-2.6930849.6338577-5.4318708 1.0548236-8.191 1.259-.029.002-.056.003-.086.003z" fill="#35495e"/><circle id="Oval" cx="4" cy="10" fill="#ff5364" r="1"/><path id="Shape" d="m4 17c-.55228475 0-1-.4477153-1-1v-2c0-.5522847.44771525-1 1-1s1 .4477153 1 1v2c0 .5522847-.44771525 1-1 1z" fill="#35495e"/><circle id="Oval" cx="4" cy="36" fill="#ff5364" r="1"/><path id="Shape" d="m4 43c-.55228475 0-1-.4477153-1-1v-2c0-.5522847.44771525-1 1-1s1 .4477153 1 1v2c0 .5522847-.44771525 1-1 1z" fill="#35495e"/><path id="Shape" d="m40 58c18.151-3.893 18.372-21.248 17.883-27.263-.0435084-.532364-.2973302-1.0254552-.7053194-1.3702004-.4079891-.3447453-.9365202-.5127314-1.4686806-.4667996-7.611.607-12.222-2.468-14.332-4.408-.7765046-.7208128-1.9774954-.7208128-2.754 0-2.11 1.94-6.721 5.015-14.332 4.408-.5320006-.0459399-1.0603897.1219113-1.4683503.4664447s-.6618902.8373709-.7056497 1.3695553c-.489 6.016-.268 23.371 17.883 27.264z" fill="#f0c419"/><path id="Shape" d="m53.17 41c-1.43 5.5-5.02 10.85-13.17 12.89v-12.89z" fill="#2980ba"/><path id="Shape" d="m53.17 41h-13.17v-12.45c3.9744389 2.9649745 8.8223292 4.5234762 13.78 4.43h.22c.1036573 2.6991216-.1757888 5.3993112-.83 8.02z" fill="#3b97d3"/><path id="Shape" d="m40 41v12.89c-8.15-2.04-11.74-7.39-13.17-12.89z" fill="#3b97d3"/><path id="Shape" d="m40 28.55v12.45h-13.17c-.6542112-2.6206888-.9336573-5.3208784-.83-8.02h.22c4.95701.0889923 9.8034852-1.4690546 13.78-4.43z" fill="#2980ba"/><circle id="Oval" cx="4" cy="23" fill="#ff5364" r="1"/><path id="Shape" d="m4 30c-.55228475 0-1-.4477153-1-1v-2c0-.5522847.44771525-1 1-1s1 .4477153 1 1v2c0 .5522847-.44771525 1-1 1z" fill="#2c3e50"/></g></g></svg>