<svg height="512" viewBox="0 0 58 58" width="512" xmlns="http://www.w3.org/2000/svg"><g id="Page-1" fill="none" fill-rule="evenodd"><g id="015---Server-Files" fill-rule="nonzero"><path id="Shape" d="m40 4v40c0 2.21-8.95 4-20 4s-20-1.79-20-4v-40z" fill="#955ba5"/><path id="Shape" d="m0 30.125c0 2.209 8.954 4 20 4s20-1.791 20-4v-13.125c0 2.209-8.954 4-20 4s-20-1.791-20-4z" fill="#894b9d"/><path id="Shape" d="m27.97 17.231c-.5522847.023196-1.018804-.4057153-1.042-.958s.4057153-1.018804.958-1.042c2.6497678-.1928699 5.2802325-.5941102 7.867-1.2.5338367-.1329664 1.0748187.1902488 1.210707.7233492.1358884.5331004-.1843589 1.0758446-.716707 1.2146508-2.6930849.6338577-5.4318708 1.0548236-8.191 1.259-.029.002-.056.003-.086.003z" fill="#894b9d"/><circle id="Oval" cx="4" cy="10" fill="#f0c419" r="1"/><path id="Shape" d="m4 17c-.55228475 0-1-.4477153-1-1v-2c0-.5522847.44771525-1 1-1s1 .4477153 1 1v2c0 .5522847-.44771525 1-1 1z" fill="#894b9d"/><circle id="Oval" cx="4" cy="23" fill="#f0c419" r="1"/><path id="Shape" d="m4 30c-.55228475 0-1-.4477153-1-1v-2c0-.5522847.44771525-1 1-1s1 .4477153 1 1v2c0 .5522847-.44771525 1-1 1z" fill="#5d4c72"/><circle id="Oval" cx="4" cy="36" fill="#f0c419" r="1"/><path id="Shape" d="m4 43c-.55228475 0-1-.4477153-1-1v-2c0-.5522847.44771525-1 1-1s1 .4477153 1 1v2c0 .5522847-.44771525 1-1 1z" fill="#894b9d"/><rect id="Rectangle-path" fill="#35495e" height="34" rx="2" width="34" x="24" y="24"/><circle id="Oval" cx="41" cy="45" fill="#95a5a5" r="6"/><circle id="Oval" cx="41" cy="45" fill="#7f8c8d" r="2"/><path id="Shape" d="m52 24v9c-.0032948 1.1032019-.8967981 1.9967052-2 2h-5v-11z" fill="#95a5a5"/><path id="Shape" d="m45 24v11h-13c-1.1032019-.0032948-1.9967052-.8967981-2-2v-9z" fill="#bdc3c7"/><g fill="#2c3e50"><path id="Shape" d="m34 32c-.5522847 0-1-.4477153-1-1v-3c0-.5522847.4477153-1 1-1s1 .4477153 1 1v3c0 .5522847-.4477153 1-1 1z"/><path id="Shape" d="m29 55h-1c-.5522847 0-1-.4477153-1-1s.4477153-1 1-1h1c.5522847 0 1 .4477153 1 1s-.4477153 1-1 1z"/><path id="Shape" d="m54 55h-1c-.5522847 0-1-.4477153-1-1s.4477153-1 1-1h1c.5522847 0 1 .4477153 1 1s-.4477153 1-1 1z"/></g><ellipse id="Oval" cx="20" cy="4" fill="#b49aca" rx="20" ry="4"/></g></g></svg>