<svg height="512" viewBox="0 0 56 58" width="512" xmlns="http://www.w3.org/2000/svg"><g id="Page-1" fill="none" fill-rule="evenodd"><g id="017---Server-Search" fill-rule="nonzero"><path id="Shape" d="m34 4v40l-13.72 2.93c-1.06.04-2.16.07-3.28.07-9.39 0-17-1.79-17-4v-39z" fill="#95a5a5"/><path id="Shape" d="m0 30c0 1.47 3.39 2.76 8.43 3.45l4.24.41c1.38.09 2.83.14 4.33.14 9.39 0 17-1.79 17-4l-.01-12.91c-.19 2.17-7.73 3.91-16.99 3.91-.75 0-1.49-.01-2.21-.04l-4.55-.3c-6.03-.6-10.24-2.02-10.24-3.66z" fill="#7f8c8d"/><circle id="Oval" cx="4" cy="10" fill="#f0c419" r="1"/><path id="Shape" d="m4 17c-.55228475 0-1-.4477153-1-1v-2c0-.5522847.44771525-1 1-1s1 .4477153 1 1v2c0 .5522847-.44771525 1-1 1z" fill="#7f8c8d"/><circle id="Oval" cx="4" cy="23" fill="#f0c419" r="1"/><path id="Shape" d="m4 30c-.55228475 0-1-.4477153-1-1v-2c0-.5522847.44771525-1 1-1s1 .4477153 1 1v2c0 .5522847-.44771525 1-1 1z" fill="#547580"/><circle id="Oval" cx="4" cy="36" fill="#f0c419" r="1"/><path id="Shape" d="m4 43c-.55228475 0-1-.4477153-1-1v-2c0-.5522847.44771525-1 1-1s1 .4477153 1 1v2c0 .5522847-.44771525 1-1 1z" fill="#7f8c8d"/><path id="Shape" d="m41.35 40.52 2.75 2.75-2.83 2.83-2.64-2.64z" fill="#35495e"/><rect id="Rectangle-path" fill="#e57e25" height="16" rx="2" transform="matrix(.707 -.707 .707 .707 -21.439 48.929)" width="8" x="44.343" y="42.343"/><path id="Rectangle-path" d="m44.343 46.343h8v8h-8z" fill="#f0c419" transform="matrix(.707 -.707 .707 .707 -21.439 48.929)"/><ellipse id="Oval" cx="17" cy="4" fill="#bdc3c7" rx="17" ry="4"/><circle id="Oval" cx="26.5" cy="29.5" fill="#3f5c6c" r="18.5"/><path id="Shape" d="m41 29.5c-.0055156 8.0058431-6.4941569 14.4944844-14.5 14.5-8.0040173-.0099176-14.4900824-6.4959827-14.5-14.5.0099927-7.2831915 5.4210871-13.4288442 12.644402-14.3608848 7.2233149-.9320407 14.0171798 3.6387786 15.875598 10.6808848.3230407 1.1998425.4844663 2.4374392.48 3.68z" fill="#67b9cc"/><path id="Shape" d="m41 29.5c-.0012674 5.0765022-2.6560432 9.7830405-7 12.41-.06.03-.11.07-.17.1-.2.12-.4.23-.61.34s-.43.22-.66.32c-.14.07-.28.13-.42.19-.22.09-.44.18-.66.26-.13.05-.25.09-.38.13-.1770187.0657347-.357249.1224739-.54.17-.35.11-.7.19-1.06.27-.26.05-.52.1-.79.14-.1.02-.2.03-.3.04-.29.04-.59.07-.89.09-.34.03-.68.04-1.02.04-2.4571903.0040641-4.8743019-.6225945-7.02-1.82-.3230407-1.1998425-.4844663-2.4374392-.48-3.68-.0053176-3.8472668 1.5206489-7.538489 4.24108-10.25892 2.720431-2.7204311 6.4116532-4.2463976 10.25892-4.24108.1669165-.0033243.3338823.0033543.5.02 2.2862921.0680712 4.5226104.6854597 6.52 1.8.3230407 1.1998425.4844663 2.4374392.48 3.68z" fill="#2fa8cc"/><path id="Shape" d="m33.99 17.09c-.19 2.17-7.73 3.91-16.99 3.91-.75 0-1.49-.01-2.21-.04 4.4237199-6.0805555 12.7661706-7.7620807 19.2-3.87z" fill="#95a5a5"/><path id="Shape" d="m34 17.09v6.93c-.1661177-.0166457-.3330835-.0233243-.5-.02-6.2504358.0059388-11.7963839 4.009332-13.77 9.94-.8866667.04-1.7966667.06-2.73.06-1.5 0-2.94-.05-4.32-.14-1.3982328-4.3901362-.6140978-9.1841365 2.11-12.9.72.03 1.46.04 2.21.04 9.26 0 16.8-1.74 16.99-3.91z" fill="#7f8c8d"/><path id="Shape" d="m34 24.02v5.98c0 1.99-6.18 3.64-14.27 3.94 1.9736161-5.930668 7.5195642-9.9340612 13.77-9.94.1669165-.0033243.3338823.0033543.5.02z" fill="#547580"/><path id="Shape" d="m19 38.5c-.0044663 1.2425608.1569593 2.4801575.48 3.68-3.2506812-1.7975674-5.685439-4.7765652-6.8-8.32 1.38.09 2.82.14 4.32.14.93 0 1.84-.02 2.73-.06-.4834588 1.4717073-.7298675 3.0109181-.73 4.56z" fill="#95a5a5"/><path id="Shape" d="m34 30v11.91c-.5955523.3624097-1.2172723.6799549-1.86.95-4.1002732 1.7308562-8.7687198 1.4801023-12.66-.68-.3230407-1.1998425-.4844663-2.4374392-.48-3.68.0001325-1.5490819.2465412-3.0882927.73-4.56 8.09-.3 14.27-1.95 14.27-3.94z" fill="#7f8c8d"/></g></g></svg>