<svg height="512" viewBox="0 0 58 58" width="512" xmlns="http://www.w3.org/2000/svg"><g id="Page-1" fill="none" fill-rule="evenodd"><g id="018---Upload-Data" fill-rule="nonzero"><path id="Shape" d="m17 18v24c0 2.21 5.37 4 12 4s12-1.79 12-4v-24z" fill="#35495e"/><path id="Shape" d="m33 14.23c4.66.55 8 2.03 8 3.77 0 1.2-1.58 2.27-4.07 3-2.584676.6968944-5.2532304 1.0334082-7.93 1-6.63 0-12-1.79-12-4 0-1.74 3.34-3.22 8-3.77z" fill="#547580"/><path id="Shape" d="m29 17h3c.5522847 0 1-.4477153 1-1v-7c0-.55228475.4477153-1 1-1h.586c.4043959-.00008635.7689341-.2437275.923678-.61734544s.0692299-.80366031-.216678-1.08965456l-5.586-5.586c-.3904999-.39038194-1.0235001-.39038194-1.414 0l-5.586 5.586c-.2859079.28599425-.3714219.71603662-.216678 1.08965456s.5192821.61725909.923678.61734544h.586c.5522847 0 1 .44771525 1 1v7c0 .5522847.4477153 1 1 1z" fill="#f0c419"/><path id="Shape" d="m17 34c0 2.209 5.373 4 12 4s12-1.791 12-4v-8c0 2.209-5.373 4-12 4s-12-1.791-12-4z" fill="#2c3e50"/><circle id="Oval" cx="21" cy="25" fill="#ff5364" r="1"/><circle id="Oval" cx="21" cy="33" fill="#ff5364" r="1"/><circle id="Oval" cx="21" cy="41" fill="#ff5364" r="1"/><g fill="#f0c419"><circle id="Oval" cx="29" cy="49" r="1"/><circle id="Oval" cx="29" cy="53" r="1"/><circle id="Oval" cx="29" cy="57" r="1"/><circle id="Oval" cx="25" cy="57" r="1"/><circle id="Oval" cx="21" cy="57" r="1"/><circle id="Oval" cx="37" cy="57" r="1"/><circle id="Oval" cx="33" cy="57" r="1"/></g><rect id="Rectangle-path" fill="#7d6599" height="12" rx="2" width="16" y="46"/><rect id="Rectangle-path" fill="#7d6599" height="12" rx="2" width="16" x="42" y="46"/><path id="Shape" d="m58 48v2h-16v-2c.0032948-1.1032019.8967981-1.9967052 2-2h12c1.1032019.0032948 1.9967052.8967981 2 2z" fill="#3d324c"/><path id="Shape" d="m48 50v8h-4c-1.1032019-.0032948-1.9967052-.8967981-2-2v-6z" fill="#5d4c72"/><path id="Shape" d="m16 48v2h-16v-2c.0032948-1.1032019.89679813-1.9967052 2-2h12c1.1032019.0032948 1.9967052.8967981 2 2z" fill="#3d324c"/><path id="Shape" d="m6 50v8h-4c-1.10320187-.0032948-1.9967052-.8967981-2-2v-6z" fill="#5d4c72"/></g></g></svg>