<svg height="512" viewBox="0 0 60 58" width="512" xmlns="http://www.w3.org/2000/svg"><g id="Page-1" fill="none" fill-rule="evenodd"><g id="019---Cloud" fill-rule="nonzero"><path id="Shape" d="m39 4.39c3.8988796.06679889 7.0168902 3.26064093 6.99 7.16 3.0143684 1.0253389 5.0331239 3.8661027 5.01 7.05.0520545 3.9521666-3.0508156 7.2279109-7 7.39h-28c-3.9491844-.1620891-7.05205453-3.4378334-7-7.39-.00411765-1.7880334.63070085-3.5187117 1.79-4.88 1.1252697-1.3283418 2.6971962-2.1996585 4.42-2.45.8634942-2.47033711 3.1735356-4.14202507 5.79-4.19.5921719-4.0223983 4.0146695-7.02131941 8.08-7.08 3.2092684.0269368 6.106596 1.92720831 7.41 4.86l-.04.03c.8089325-.33245721 1.6754178-.50235629 2.55-.5z" fill="#ecf0f1"/><path id="Shape" d="m30 55c-.5522847 0-1-.4477153-1-1v-4c0-.5522847.4477153-1 1-1s1 .4477153 1 1v4c0 .5522847-.4477153 1-1 1z" fill="#f0c419"/><path id="Shape" d="m28 57h-27c-.55228475 0-1-.4477153-1-1s.44771525-1 1-1h27c.5522847 0 1 .4477153 1 1s-.4477153 1-1 1z" fill="#f0c419"/><path id="Shape" d="m59 57h-29c-.5522847 0-1-.4477153-1-1s.4477153-1 1-1h29c.5522847 0 1 .4477153 1 1s-.4477153 1-1 1z" fill="#f0c419"/><rect id="Rectangle-path" fill="#547580" height="11" rx="3" width="28" x="16" y="17"/><circle id="Oval" cx="20" cy="21" fill="#ff5364" r="1"/><circle id="Oval" cx="20" cy="24" fill="#f0c419" r="1"/><path id="Shape" d="m40 22h-3c-.5522847 0-1-.4477153-1-1s.4477153-1 1-1h3c.5522847 0 1 .4477153 1 1s-.4477153 1-1 1z" fill="#3f5c6c"/><path id="Shape" d="m40 25h-3c-.5522847 0-1-.4477153-1-1s.4477153-1 1-1h3c.5522847 0 1 .4477153 1 1s-.4477153 1-1 1z" fill="#3f5c6c"/><rect id="Rectangle-path" fill="#3f5c6c" height="11" rx="3" width="28" x="16" y="28"/><circle id="Oval" cx="20" cy="32" fill="#ff5364" r="1"/><circle id="Oval" cx="20" cy="35" fill="#f0c419" r="1"/><circle id="Oval" cx="3" cy="52" fill="#ff5364" r="1"/><circle id="Oval" cx="3" cy="48" fill="#ff5364" r="1"/><circle id="Oval" cx="3" cy="44" fill="#ff5364" r="1"/><circle id="Oval" cx="3" cy="40" fill="#ff5364" r="1"/><circle id="Oval" cx="8" cy="52" fill="#955ba5" r="1"/><circle id="Oval" cx="8" cy="48" fill="#955ba5" r="1"/><circle id="Oval" cx="8" cy="44" fill="#955ba5" r="1"/><circle id="Oval" cx="8" cy="40" fill="#955ba5" r="1"/><g fill="#ff5364"><circle id="Oval" cx="3" cy="36" r="1"/><circle id="Oval" cx="3" cy="32" r="1"/><circle id="Oval" cx="57" cy="52" r="1"/><circle id="Oval" cx="57" cy="48" r="1"/><circle id="Oval" cx="57" cy="44" r="1"/><circle id="Oval" cx="57" cy="40" r="1"/></g><circle id="Oval" cx="52" cy="52" fill="#955ba5" r="1"/><circle id="Oval" cx="52" cy="48" fill="#955ba5" r="1"/><circle id="Oval" cx="52" cy="44" fill="#955ba5" r="1"/><circle id="Oval" cx="52" cy="40" fill="#955ba5" r="1"/><circle id="Oval" cx="57" cy="36" fill="#ff5364" r="1"/><circle id="Oval" cx="57" cy="32" fill="#ff5364" r="1"/><path id="Shape" d="m40 33h-3c-.5522847 0-1-.4477153-1-1s.4477153-1 1-1h3c.5522847 0 1 .4477153 1 1s-.4477153 1-1 1z" fill="#2c3e50"/><path id="Shape" d="m40 36h-3c-.5522847 0-1-.4477153-1-1s.4477153-1 1-1h3c.5522847 0 1 .4477153 1 1s-.4477153 1-1 1z" fill="#2c3e50"/><rect id="Rectangle-path" fill="#547580" height="11" rx="3" width="28" x="16" y="39"/><circle id="Oval" cx="20" cy="43" fill="#ff5364" r="1"/><circle id="Oval" cx="20" cy="46" fill="#f0c419" r="1"/><path id="Shape" d="m40 44h-3c-.5522847 0-1-.4477153-1-1s.4477153-1 1-1h3c.5522847 0 1 .4477153 1 1s-.4477153 1-1 1z" fill="#3f5c6c"/><path id="Shape" d="m40 47h-3c-.5522847 0-1-.4477153-1-1s.4477153-1 1-1h3c.5522847 0 1 .4477153 1 1s-.4477153 1-1 1z" fill="#3f5c6c"/><circle id="Oval" cx="30" cy="56" fill="#ff5364" r="2"/></g></g></svg>