<svg height="512" viewBox="0 0 58 58" width="512" xmlns="http://www.w3.org/2000/svg"><g id="Page-1" fill="none" fill-rule="evenodd"><g id="020---Timeline" fill-rule="nonzero"><path id="Shape" d="m27.971 17.231c-.5522847.023196-1.018804-.4057153-1.042-.958s.4057153-1.018804.958-1.042c2.649439-.1928603 5.2795722-.594101 7.866-1.2.5338367-.1329664 1.0748187.1902488 1.210707.7233492.1358884.5331004-.1843589 1.0758446-.716707 1.2146508-2.6927302.6339441-5.4311907 1.0549113-8.19 1.259z" fill="#000"/><path id="Shape" d="m40 4v40c0 2.07-7.89 3.78-18 3.98h-4c-10.11-.2-18-1.91-18-3.98v-40z" fill="#3f5c6c"/><circle id="Oval" cx="4" cy="10" fill="#ff5364" r="1"/><path id="Shape" d="m4 17c-.55228475 0-1-.4477153-1-1v-2c0-.5522847.44771525-1 1-1s1 .4477153 1 1v2c0 .5522847-.44771525 1-1 1z" fill="#35495e"/><circle id="Oval" cx="4" cy="36" fill="#ff5364" r="1"/><path id="Shape" d="m4 43c-.55228475 0-1-.4477153-1-1v-2c0-.5522847.44771525-1 1-1s1 .4477153 1 1v2c0 .5522847-.44771525 1-1 1z" fill="#35495e"/><ellipse id="Oval" cx="20" cy="4" fill="#547580" rx="20" ry="4"/><path id="Shape" d="m0 30c0 2.209 8.954 4 20 4s20-1.791 20-4v-13c0 2.209-8.954 4-20 4s-20-1.791-20-4z" fill="#35495e"/><circle id="Oval" cx="4" cy="23" fill="#ff5364" r="1"/><path id="Shape" d="m4 30c-.55228475 0-1-.4477153-1-1v-2c0-.5522847.44771525-1 1-1s1 .4477153 1 1v2c0 .5522847-.44771525 1-1 1z" fill="#2c3e50"/><rect id="Rectangle-path" fill="#ecf0f1" height="33" rx="2" width="40" x="18" y="25"/><circle id="Oval" cx="38" cy="45" fill="#2fa8cc" r="9"/><path id="Shape" d="m41 50c-.3147573 0-.6111456-.1481942-.8-.4l-3-4c-.1298221-.1730962-.2-.3836298-.2-.6v-5c0-.5522847.4477153-1 1-1s1 .4477153 1 1v4.667l2.8 3.733c.2272632.3030176.2638192.7084296.0944272 1.0472136s-.5156551.5527864-.8944272.5527864z" fill="#35495e"/><g fill="#3f5c6c"><path id="Shape" d="m26 37h-4c-.5522847 0-1-.4477153-1-1s.4477153-1 1-1h4c.5522847 0 1 .4477153 1 1s-.4477153 1-1 1z"/><path id="Shape" d="m24 42h-2c-.5522847 0-1-.4477153-1-1s.4477153-1 1-1h2c.5522847 0 1 .4477153 1 1s-.4477153 1-1 1z"/><path id="Shape" d="m54 55h-4c-.5522847 0-1-.4477153-1-1s.4477153-1 1-1h4c.5522847 0 1 .4477153 1 1s-.4477153 1-1 1z"/><path id="Shape" d="m54 50h-2c-.5522847 0-1-.4477153-1-1s.4477153-1 1-1h2c.5522847 0 1 .4477153 1 1s-.4477153 1-1 1z"/></g><path id="Shape" d="m58 27v5h-40v-5c.0032948-1.1032019.8967981-1.9967052 2-2h36c1.1032019.0032948 1.9967052.8967981 2 2z" fill="#ff5364"/></g></g></svg>