<svg height="512" viewBox="0 0 58 58" width="512" xmlns="http://www.w3.org/2000/svg"><g id="Page-1" fill="none" fill-rule="evenodd"><g id="021---Server-Data" fill-rule="nonzero"><path id="Shape" d="m58 18.18v27.64c.0452102 1.152631-.8477494 2.1259569-2 2.18h-46c-1.15225064-.0540431-2.04521019-1.027369-2-2.18v-13.82l16-16h32c1.1522506.0540431 2.0452102 1.027369 2 2.18z" fill="#67b9cc"/><path id="Shape" d="m58 27.37v18.45c.0452102 1.152631-.8477494 2.1259569-2 2.18h-46c-1.15225064-.0540431-2.04521019-1.027369-2-2.18v-5.01c14.757156-9.808057 32.3141513-14.5273773 50-13.44z" fill="#2fa8cc"/><path id="Shape" d="m29 48-3 6h11 3l-3-6z" fill="#547580"/><path id="Shape" d="m20 54h26v2c0 1.1045695-.8954305 2-2 2h-22c-1.1045695 0-2-.8954305-2-2z" fill="#95a5a5" transform="matrix(-1 0 0 -1 66 112)"/><rect id="Rectangle-path" fill="#547580" height="8" rx="2" width="24"/><rect id="Rectangle-path" fill="#547580" height="8" rx="2" width="24" y="12"/><rect id="Rectangle-path" fill="#547580" height="8" rx="2" width="24" y="24"/><path id="Rectangle-path" d="m2 8h20v4h-20z" fill="#3f5c6c"/><path id="Rectangle-path" d="m2 20h20v4h-20z" fill="#3f5c6c"/><path id="Shape" d="m8 5h-4c-.55228475 0-1-.44771525-1-1s.44771525-1 1-1h4c.55228475 0 1 .44771525 1 1s-.44771525 1-1 1z" fill="#3f5c6c"/><path id="Shape" d="m8 17h-4c-.55228475 0-1-.4477153-1-1s.44771525-1 1-1h4c.55228475 0 1 .4477153 1 1s-.44771525 1-1 1z" fill="#3f5c6c"/><path id="Shape" d="m8 29h-4c-.55228475 0-1-.4477153-1-1s.44771525-1 1-1h4c.55228475 0 1 .4477153 1 1s-.44771525 1-1 1z" fill="#3f5c6c"/><circle id="Oval" cx="20" cy="4" fill="#ff5364" r="1"/><circle id="Oval" cx="20" cy="16" fill="#ff5364" r="1"/><circle id="Oval" cx="20" cy="28" fill="#ff5364" r="1"/><path id="Shape" d="m16 39c-.4856195.0004014-.9013315-.3481429-.9856407-.8263881s.187158-.9479313.6436407-1.1136119l11-4c.2120368-.0771482.4439325-.08032.658-.009l5.276 1.759 7.576-11.365c.1730192-.2608858.4582237-.4256955.7706519-.4453327s.6160245.1081643.8203481.3453327l5.122 5.976 6.275-9.862c.1918516-.3015322.5299953-.4778078.8870557-.4624255.3570603.0153823.6787913.2200856.844.537.1652087.3169145.1487959.6978933-.0430557.9994255l-7 11c-.1702261.2661715-.4562284.4362408-.7713792.4586953s-.6223764-.1053473-.8286208-.3446953l-5.141-6-7.268 10.9c-.2501038.3750952-.7202689.5364585-1.148.394l-5.67-1.89-10.675 3.889c-.109629.0397901-.2253734.0600962-.342.06z" fill="#955ba5"/><g fill="#3d324c"><circle id="Oval" cx="27" cy="38" r="1"/><circle id="Oval" cx="41" cy="38" r="1"/><circle id="Oval" cx="41" cy="34" r="1"/><circle id="Oval" cx="41" cy="30" r="1"/><circle id="Oval" cx="54" cy="38" r="1"/><circle id="Oval" cx="54" cy="34" r="1"/><circle id="Oval" cx="54" cy="30" r="1"/><circle id="Oval" cx="54" cy="26" r="1"/></g><path id="Shape" d="m30 21h-2c-.5522847 0-1-.4477153-1-1s.4477153-1 1-1h2c.5522847 0 1 .4477153 1 1s-.4477153 1-1 1z" fill="#285680"/><path id="Shape" d="m42 21h-8c-.5522847 0-1-.4477153-1-1s.4477153-1 1-1h8c.5522847 0 1 .4477153 1 1s-.4477153 1-1 1z" fill="#285680"/><path id="Shape" d="m33 25h-5c-.5522847 0-1-.4477153-1-1s.4477153-1 1-1h5c.5522847 0 1 .4477153 1 1s-.4477153 1-1 1z" fill="#285680"/><path id="Shape" d="m58 42v3.82c.0452102 1.152631-.8477494 2.1259569-2 2.18h-46c-1.15225064-.0540431-2.04521019-1.027369-2-2.18v-3.82z" fill="#95a5a5"/></g></g></svg>