<svg height="512" viewBox="0 0 58 58" width="512" xmlns="http://www.w3.org/2000/svg"><g id="Page-1" fill="none" fill-rule="evenodd"><g id="022---Cloud" fill-rule="nonzero"><path id="Shape" d="m56 11v37h-54v-37c0-2.209139 1.790861-4 4-4h46c2.209139 0 4 1.790861 4 4z" fill="#67b9cc"/><path id="Shape" d="m56 22.03v25.97h-54v-5.97c4.3-3.95 22.51-18.85 54-20z" fill="#2fa8cc"/><path id="Shape" d="m52 58h-46c-3.3137085 0-6-2.6862915-6-6v-3c0-.5522847.44771525-1 1-1h56c.5522847 0 1 .4477153 1 1v3c0 3.3137085-2.6862915 6-6 6z" fill="#547580"/><path id="Shape" d="m19 48h20v2c0 1.6568542-1.3431458 3-3 3h-14c-1.6568542 0-3-1.3431458-3-3z" fill="#35495e"/><path id="Shape" d="m14 53h-3c-.5522847 0-1-.4477153-1-1s.4477153-1 1-1h3c.5522847 0 1 .4477153 1 1s-.4477153 1-1 1z" fill="#35495e"/><circle id="Oval" cx="5" cy="52" fill="#f0c419" r="1"/><circle id="Oval" cx="8" cy="52" fill="#ff5364" r="1"/><path id="Shape" d="m31.864 0c3.2615167.03405474 6.0090464 2.44547301 6.466 5.675 2.8771929.53263526 4.8863615 3.15373044 4.6532766 6.0705113-.233085 2.9167808-2.63301 5.1855378-5.5582766 5.2544887h-17.75c-2.6012729-.0532176-4.6822299-2.1771828-4.6822299-4.779 0-2.60181721 2.080957-4.72578242 4.6822299-4.779h.095c.3616248-2.60131175 2.5737873-4.54546225 5.2-4.57.4733236-.00038336.9444353.06456275 1.4.193 1.1809178-1.90002824 3.2568975-3.05817853 5.494-3.065z" fill="#ecf0f1"/><rect id="Rectangle-path" fill="#35495e" height="6" rx="2" width="15" x="6" y="24"/><rect id="Rectangle-path" fill="#3f5c6c" height="6" rx="2" width="15" x="6" y="30"/><rect id="Rectangle-path" fill="#35495e" height="6" rx="2" width="15" x="6" y="36"/><circle id="Oval" cx="10" cy="27" fill="#ff5364" r="1"/><circle id="Oval" cx="10" cy="33" fill="#ff5364" r="1"/><circle id="Oval" cx="10" cy="39" fill="#ff5364" r="1"/><rect id="Rectangle-path" fill="#35495e" height="6" rx="2" width="15" x="37" y="24"/><rect id="Rectangle-path" fill="#3f5c6c" height="6" rx="2" width="15" x="37" y="30"/><rect id="Rectangle-path" fill="#35495e" height="6" rx="2" width="15" x="37" y="36"/><circle id="Oval" cx="41" cy="27" fill="#ff5364" r="1"/><g fill="#955ba5"><circle id="Oval" cx="29" cy="21" r="1"/><circle id="Oval" cx="29" cy="25" r="1"/><circle id="Oval" cx="29" cy="29" r="1"/><circle id="Oval" cx="29" cy="33" r="1"/><circle id="Oval" cx="25" cy="33" r="1"/><circle id="Oval" cx="33" cy="33" r="1"/></g><circle id="Oval" cx="41" cy="33" fill="#ff5364" r="1"/><circle id="Oval" cx="41" cy="39" fill="#ff5364" r="1"/></g></g></svg>