<svg height="512" viewBox="0 0 58 58" width="512" xmlns="http://www.w3.org/2000/svg"><g id="Page-1" fill="none" fill-rule="evenodd"><g id="023---Server-Fix"><path id="Shape" d="m32.44 33.14h-.01" stroke="#000" stroke-linecap="round" stroke-linejoin="round" stroke-width="2"/><g fill-rule="nonzero"><path id="Shape" d="m40 4v32l-.65 9.01c-2.24 1.72-10.05 2.99-19.35 2.99-11.05 0-20-1.79-20-4v-40z" fill="#955ba5"/><circle id="Oval" cx="4" cy="10" fill="#f0c419" r="1"/><path id="Shape" d="m4 17c-.55228475 0-1-.4477153-1-1v-2c0-.5522847.44771525-1 1-1s1 .4477153 1 1v2c0 .5522847-.44771525 1-1 1z" fill="#894b9d"/><circle id="Oval" cx="4" cy="36" fill="#f0c419" r="1"/><path id="Shape" d="m4 43c-.55228475 0-1-.4477153-1-1v-2c0-.5522847.44771525-1 1-1s1 .4477153 1 1v2c0 .5522847-.44771525 1-1 1z" fill="#894b9d"/><path id="Shape" d="m0 30c0 2.21 8.95 4 20 4 2.75 0 5.37-.11 7.75-.32l6.96-.97c3.29-.72 5.29-1.67 5.29-2.71v-13c0 1.04-2 1.99-5.29 2.71l-6.96.97c-2.38.21-5 .32-7.75.32-11.05 0-20-1.79-20-4z" fill="#894b9d"/><circle id="Oval" cx="4" cy="23" fill="#f0c419" r="1"/><path id="Shape" d="m4 30c-.55228475 0-1-.4477153-1-1v-2c0-.5522847.44771525-1 1-1s1 .4477153 1 1v2c0 .5522847-.44771525 1-1 1z" fill="#3d324c"/><path id="Shape" d="m39.327 33.67 17.5 17.5c1.5621374 1.5621374 1.5621374 4.0948626 0 5.657s-4.0948626 1.5621374-5.657 0l-17.5-17.5z" fill="#7f8c8d"/><circle id="Oval" cx="53.292" cy="53.292" fill="#547580" r="1"/><circle id="Oval" cx="50.464" cy="50.464" fill="#547580" r="1"/><circle id="Oval" cx="47.636" cy="47.636" fill="#547580" r="1"/><circle id="Oval" cx="44.807" cy="44.807" fill="#547580" r="1"/><path id="Shape" d="m37.029 21.473c3.824709 3.8258798 4.2998125 9.8648606 1.12044 14.2417712-3.1793724 4.3769105-9.069329 5.7923339-13.8903264 3.3380031-4.8209973-2.4543309-7.141778-8.0497745-5.4731136-13.1957743l8.343 8.343h4.243l2.828-2.828v-4.243l-8.344-8.343c3.9332623-1.2774501 8.2506649-.2391559 11.173 2.687z" fill="#95a5a5"/><ellipse id="Oval" cx="20" cy="4" fill="#b49aca" rx="20" ry="4"/></g></g></g></svg>