<svg height="512" viewBox="0 0 58 58" width="512" xmlns="http://www.w3.org/2000/svg"><g id="Page-1" fill="none" fill-rule="evenodd"><g id="025---Online-Data" fill-rule="nonzero"><path id="Shape" d="m58 18.18v27.64c.0452102 1.152631-.8477494 2.1259569-2 2.18h-46c-1.15225064-.0540431-2.04521019-1.027369-2-2.18v-14.4l25.97-15.42h22.03c1.1522506.0540431 2.0452102 1.027369 2 2.18z" fill="#67b9cc"/><path id="Shape" d="m58 30.31v15.51c.0452102 1.152631-.8477494 2.1259569-2 2.18h-46c-1.15225064-.0540431-2.04521019-1.027369-2-2.18v-2.8c7.8-4.87 29.53-16.77 50-12.71z" fill="#2fa8cc"/><path id="Shape" d="m29 48-3 6h11 3l-3-6z" fill="#547580"/><path id="Shape" d="m20 54h26v2c0 1.1045695-.8954305 2-2 2h-22c-1.1045695 0-2-.8954305-2-2z" fill="#7f8c8d" transform="matrix(-1 0 0 -1 66 112)"/><path id="Shape" d="m34 17c0 .33-.01.67-.03 1-.1171092 2.0744556-.6189743 4.1090438-1.48 6-.3069077.6921167-.6645485 1.3606042-1.07 2-3.1057606 4.9741662-8.5558651 7.9964674-14.42 7.9964674s-11.31423941-3.0223012-14.42-7.9964674c-.40545148-.6393958-.76309226-1.3078833-1.07-2-.86102566-1.8909562-1.36289075-3.9255444-1.48-6-.02-.33-.03-.67-.03-1s.01-.67.03-1c.11710925-2.0744556.61897434-4.1090438 1.48-6 .30690774-.69211672.66454852-1.36060418 1.07-2 3.10576059-4.9741662 8.5558651-7.99646736 14.42-7.99646736s11.3142394 3.02230116 14.42 7.99646736c.4054515.63939582.7630923 1.30788328 1.07 2 .8610257 1.8909562 1.3628908 3.9255444 1.48 6 .02.33.03.67.03 1z" fill="#f0c419"/><path id="Shape" d="m33.97 18c.02-.33.03-.67.03-1s-.01-.67-.03-1h-5.01c-.0688975-2.0383302-.4188679-4.0573904-1.04-6h4.57c-.3069077-.69211672-.6645485-1.36060418-1.07-2h-4.26c-2.12-4.8-5.88-8-10.16-8s-8.04 3.2-10.16 8h-4.26c-.40545148.63939582-.76309226 1.30788328-1.07 2h4.57c-.62113207 1.9426096-.9711025 3.9616698-1.04 6h-5.01c-.02.33-.03.67-.03 1s.01.67.03 1h5.01c.0688975 2.0383302.41886793 4.0573904 1.04 6h-4.57c.30690774.6921167.66454852 1.3606042 1.07 2h4.26c2.12 4.8 5.88 8 10.16 8s8.04-3.2 10.16-8h4.26c.4054515-.6393958.7630923-1.3078833 1.07-2h-4.57c.6211321-1.9426096.9711025-3.9616698 1.04-6zm-8.99-10h-2.82c-.3236949-1.73236434-.8681321-3.4160868-1.62-5.01 1.9348541 1.20370969 3.4775821 2.94449055 4.44 5.01zm-7.98-6c1 0 2.27 2.2 3.11 6h-6.22c.84-3.8 2.11-6 3.11-6zm3.48 8c.3055179 1.9859953.4725874 3.9908292.5 6h-7.96c.0274126-2.0091708.1944821-4.0140047.5-6zm-7.02-7.01c-.7518679 1.5939132-1.2963051 3.27763566-1.62 5.01h-2.82c.96241792-2.06550945 2.5051459-3.80629031 4.44-5.01zm-5.3 7.01h3.34c-.2904343 1.9874194-.4507754 3.9916838-.48 6h-3.99c.08275037-2.044325.46342909-4.0656279 1.13-6zm-1.13 8h3.99c.0292246 2.0083162.1895657 4.0125806.48 6h-3.34c-.66657091-1.9343721-1.04724963-3.955675-1.13-6zm1.99 8h2.82c.3236949 1.7323643.8681321 3.4160868 1.62 5.01-1.9348541-1.2037097-3.47758208-2.9444905-4.44-5.01zm7.98 6c-1 0-2.27-2.2-3.11-6h6.22c-.84 3.8-2.11 6-3.11 6zm-3.48-8c-.3055179-1.9859953-.4725874-3.9908292-.5-6h7.96c-.0274126 2.0091708-.1944821 4.0140047-.5 6zm7.02 7.01c.7518679-1.5939132 1.2963051-3.2776357 1.62-5.01h2.82c-.9624179 2.0655095-2.5051459 3.8062903-4.44 5.01zm5.3-7.01h-3.34c.2904343-1.9874194.4507754-3.9916838.48-6h3.99c-.0827504 2.044325-.4634291 4.0656279-1.13 6zm-2.86-8c-.0292246-2.0083162-.1895657-4.0125806-.48-6h3.34c.6665709 1.9343721 1.0472496 3.955675 1.13 6z" fill="#f29c1f"/><path id="Shape" d="m32 37c-.3687074-.0003134-.7073293-.2034902-.88111-.5286756s-.1545228-.719615.05011-1.0263244l8-12c.1730192-.2608858.4582237-.4256955.7706519-.4453327s.6160245.1081643.8203481.3453327l5.122 5.976 6.275-9.862c.1918516-.3015322.5299953-.4778077.8870556-.4624254.3570604.0153823.6787913.2200855.844.537.1652087.3169144.148796.6978932-.0430556.9994254l-7 11c-.1700453.267489-.4568345.4385237-.773.461-.3163063.0241403-.6249955-.1049141-.83-.347l-5.141-6-7.268 10.9c-.1838767.2814124-.4968428.4516089-.833.453z" fill="#955ba5"/><g fill="#3d324c"><circle id="Oval" cx="40" cy="38" r="1"/><circle id="Oval" cx="40" cy="34" r="1"/><circle id="Oval" cx="40" cy="30" r="1"/><circle id="Oval" cx="53" cy="38" r="1"/><circle id="Oval" cx="53" cy="34" r="1"/><circle id="Oval" cx="53" cy="30" r="1"/><circle id="Oval" cx="53" cy="26" r="1"/></g><path id="Shape" d="m58 42v3.82c.0452102 1.152631-.8477494 2.1259569-2 2.18h-46c-1.15225064-.0540431-2.04521019-1.027369-2-2.18v-3.82z" fill="#7f8c8d"/></g></g></svg>