<svg height="512" viewBox="0 0 48 58" width="512" xmlns="http://www.w3.org/2000/svg"><g id="Page-1" fill="none" fill-rule="evenodd"><g id="026---Cloud-Settings" fill-rule="nonzero"><path id="Shape" d="m39.48 29c.3294304.7146199.6035677 1.4534532.82 2.21l4.91 1.63c.4716805.1597152.7893308.6020131.79 1.1v4.12c-.0006692.4979869-.3183195.9402848-.79 1.1l-4.91 1.63c-.3348268 1.1674143-.7976356 2.294253-1.38 3.36l2.31 4.61c.2247136.4471591.1358919.9881642-.22 1.34l-2.91 2.91c-.3518358.3558919-.8928409.4447136-1.34.22l-4.61-2.31c-1.065747.5823644-2.1925857 1.0451732-3.36 1.38l-1.63 4.91c-.1597152.4716805-.6020131.7893308-1.1.79h-4.12c-.4979869-.0006692-.9402848-.3183195-1.1-.79l-1.63-4.91c-1.1674143-.3348268-2.294253-.7976356-3.36-1.38l-4.61 2.31c-.4471591.2247136-.9881642.1358919-1.34-.22l-2.91-2.91c-.35589187-.3518358-.4447136-.8928409-.22-1.34l2.31-4.61c-.58236443-1.065747-1.04517318-2.1925857-1.38-3.36l-4.91-1.63c-.47168048-.1597152-.78933079-.6020131-.79-1.1v-4.12c.00066921-.4979869.31831952-.9402848.79-1.1l4.91-1.63c.21643232-.7565468.49056955-1.4953801.82-2.21z" fill="#35495e"/><path id="Shape" d="m33.75 29c3.5698367 4.9754467 2.8207238 11.8407078-1.7381355 15.9291801s-11.4648697 4.0884723-16.023729 0-5.3079722-10.9537334-1.7381355-15.9291801z" fill="#3f5c6c"/><circle id="Oval" cx="24" cy="36" fill="#2c3e50" r="2"/><path id="Shape" d="m17 37c-.5522847 0-1-.4477153-1-1 .0049599-4.4162219 3.5837781-7.9950401 8-8 .5522847 0 1 .4477153 1 1s-.4477153 1-1 1c-3.3123376.0033074-5.9966926 2.6876624-6 6 0 .5522847-.4477153 1-1 1z" fill="#547580"/><path id="Shape" d="m24 44c-.5522847 0-1-.4477153-1-1s.4477153-1 1-1c3.3123376-.0033074 5.9966926-2.6876624 6-6 0-.5522847.4477153-1 1-1s1 .4477153 1 1c-.0049599 4.4162219-3.5837781 7.9950401-8 8z" fill="#547580"/><path id="Shape" d="m22.95 0c-4.5950948.02050088-8.5004797 3.363138-9.23 7.9-2.9644476.03162583-5.60188221 1.88936635-6.63 4.67h.04c-4.28459934.5921037-7.38543851 4.3913628-7.10696467 8.7077074.27847385 4.3163446 3.84180153 7.6856574 8.16696467 7.7222926h31.62c4.0527425-.0335683 7.4824539-3.0025462 8.0962959-7.0086724.6138419-4.0061262-1.7695408-7.8658201-5.6262959-9.1113276-.0278828-4.40505057-3.594918-7.96762702-8-7.99-.9781086-.00396046-1.9482596.17582277-2.86.53-1.5320973-3.29744488-4.8340171-5.41036165-8.47-5.42z" fill="#ecf0f1"/><g fill="#bdc3c7"><path id="Shape" d="m13 26h-3c-.55228475 0-1-.4477153-1-1s.44771525-1 1-1h3c.5522847 0 1 .4477153 1 1s-.4477153 1-1 1z"/><path id="Shape" d="m39 26h-21c-.5522847 0-1-.4477153-1-1s.4477153-1 1-1h21c.5522847 0 1 .4477153 1 1s-.4477153 1-1 1z"/></g></g></g></svg>