<svg height="512" viewBox="0 0 58 58" width="512" xmlns="http://www.w3.org/2000/svg"><g id="Page-1" fill="none" fill-rule="evenodd"><g id="029---Date" fill-rule="nonzero"><path id="Shape" d="m40 4v40c0 2.21-8.95 4-20 4s-20-1.79-20-4v-40z" fill="#3f5c6c"/><path id="Shape" d="m0 30c0 2.209 8.954 4 20 4s20-1.791 20-4v-13c0 2.209-8.954 4-20 4s-20-1.791-20-4z" fill="#35495e"/><circle id="Oval" cx="4" cy="10" fill="#ff5364" r="1"/><path id="Shape" d="m4 17c-.55228475 0-1-.4477153-1-1v-2c0-.5522847.44771525-1 1-1s1 .4477153 1 1v2c0 .5522847-.44771525 1-1 1z" fill="#35495e"/><circle id="Oval" cx="4" cy="36" fill="#ff5364" r="1"/><path id="Shape" d="m4 43c-.55228475 0-1-.4477153-1-1v-2c0-.5522847.44771525-1 1-1s1 .4477153 1 1v2c0 .5522847-.44771525 1-1 1z" fill="#35495e"/><circle id="Oval" cx="4" cy="23" fill="#ff5364" r="1"/><path id="Shape" d="m4 30c-.55228475 0-1-.4477153-1-1v-2c0-.5522847.44771525-1 1-1s1 .4477153 1 1v2c0 .5522847-.44771525 1-1 1z" fill="#2c3e50"/><ellipse id="Oval" cx="20" cy="4" fill="#547580" rx="20" ry="4"/><path id="Rectangle-path" d="m18 34h10v8h-10z" fill="#bdc3c7"/><path id="Rectangle-path" d="m48 34h10v8h-10z" fill="#ecf0f1"/><path id="Rectangle-path" d="m48 42h10v8h-10z" fill="#bdc3c7"/><path id="Rectangle-path" d="m18 42h10v8h-10z" fill="#ecf0f1"/><path id="Shape" d="m28 50v8h-6c-2.209139 0-4-1.790861-4-4v-4z" fill="#bdc3c7"/><path id="Rectangle-path" d="m28 50h10v8h-10z" fill="#ecf0f1"/><path id="Rectangle-path" d="m38 50h10v8h-10z" fill="#bdc3c7"/><path id="Shape" d="m58 50v4c0 2.209139-1.790861 4-4 4h-6v-8z" fill="#ecf0f1"/><path id="Rectangle-path" d="m28 42h10v8h-10z" fill="#bdc3c7"/><path id="Rectangle-path" d="m38 42h10v8h-10z" fill="#ecf0f1"/><path id="Rectangle-path" d="m28 34h10v8h-10z" fill="#ecf0f1"/><path id="Rectangle-path" d="m38 34h10v8h-10z" fill="#bdc3c7"/><path id="Shape" d="m27.971 17.231c-.5522847.023196-1.018804-.4057153-1.042-.958s.4057153-1.018804.958-1.042c2.649439-.1928603 5.2795722-.594101 7.866-1.2.5338367-.1329664 1.0748187.1902488 1.210707.7233492.1358884.5331004-.1843589 1.0758446-.716707 1.2146508-2.6927302.6339441-5.4311907 1.0549113-8.19 1.259z" fill="#35495e"/><path id="Shape" d="m58 31v3h-40v-3c0-2.209139 1.790861-4 4-4h32c2.209139 0 4 1.790861 4 4z" fill="#e64c3c"/><g fill="#95a5a5"><rect id="Rectangle-path" height="6" rx="1" width="4" x="24" y="24"/><rect id="Rectangle-path" height="6" rx="1" width="4" x="36" y="24"/><rect id="Rectangle-path" height="6" rx="1" width="4" x="48" y="24"/></g></g></g></svg>