<svg height="512" viewBox="0 0 58 58" width="512" xmlns="http://www.w3.org/2000/svg"><g id="Page-1" fill="none" fill-rule="evenodd"><g id="030---Server-Data" fill-rule="nonzero"><path id="Shape" d="m29 53c-.5522847 0-1-.4477153-1-1v-6c0-.5522847.4477153-1 1-1s1 .4477153 1 1v6c0 .5522847-.4477153 1-1 1z" fill="#3f5c6c"/><rect id="Rectangle-path" fill="#a56a43" height="4" rx="2" width="58"/><rect id="Rectangle-path" fill="#a56a43" height="4" rx="2" width="58" y="42"/><path id="Rectangle-path" d="m3 4h52v38h-52z" fill="#ecf0f1"/><circle id="Oval" cx="29" cy="55" fill="#f0c419" r="3"/><rect id="Rectangle-path" fill="#3f5c6c" height="10" rx="3" width="26" x="7" y="8"/><circle id="Oval" cx="11" cy="11" fill="#f0c419" r="1"/><circle id="Oval" cx="11" cy="15" fill="#ff5364" r="1"/><rect id="Rectangle-path" fill="#35495e" height="10" rx="3" width="26" x="7" y="18"/><circle id="Oval" cx="11" cy="21" fill="#f0c419" r="1"/><circle id="Oval" cx="11" cy="25" fill="#ff5364" r="1"/><rect id="Rectangle-path" fill="#3f5c6c" height="10" rx="3" width="26" x="7" y="28"/><circle id="Oval" cx="11" cy="31" fill="#f0c419" r="1"/><circle id="Oval" cx="11" cy="35" fill="#ff5364" r="1"/><g fill="#f0c419"><path id="Shape" d="m39 31h2c.5522847 0 1 .4477153 1 1v6h-4v-6c0-.5522847.4477153-1 1-1z"/><path id="Shape" d="m47 26h2c.5522847 0 1 .4477153 1 1v11h-4v-11c0-.5522847.4477153-1 1-1z"/><path id="Shape" d="m51 15c.0035616 1.3807655-.4037113 2.7313801-1.17 3.88l-5.83-3.88v-7c3.8659932 0 7 3.1340068 7 7z"/></g><path id="Shape" d="m49.83 18.88c-1.3450013 2.022306-3.6421438 3.2029067-6.0694402 3.1193474-2.4272964-.0835594-4.6378129-1.4193356-5.8405598-3.5293474l6.08-3.47z" fill="#ff5364"/><path id="Shape" d="m44 8v7l-6.08 3.47c-.6079902-1.0550146-.9254386-2.2523472-.92-3.47 0-3.8659932 3.1340068-7 7-7z" fill="#955ba5"/><path id="Shape" d="m51 39h-14c-.5522847 0-1-.4477153-1-1s.4477153-1 1-1h14c.5522847 0 1 .4477153 1 1s-.4477153 1-1 1z" fill="#ff5364"/><path id="Shape" d="m29 14h-3c-.5522847 0-1-.4477153-1-1s.4477153-1 1-1h3c.5522847 0 1 .4477153 1 1s-.4477153 1-1 1z" fill="#35495e"/><path id="Shape" d="m29 24h-3c-.5522847 0-1-.4477153-1-1s.4477153-1 1-1h3c.5522847 0 1 .4477153 1 1s-.4477153 1-1 1z" fill="#2c3e50"/><path id="Shape" d="m29 34h-3c-.5522847 0-1-.4477153-1-1s.4477153-1 1-1h3c.5522847 0 1 .4477153 1 1s-.4477153 1-1 1z" fill="#35495e"/></g></g></svg>