<svg height="512" viewBox="0 0 58 58" width="512" xmlns="http://www.w3.org/2000/svg"><g id="Page-1" fill="none" fill-rule="evenodd"><g id="031---Server-Download" fill-rule="nonzero"><path id="Shape" d="m17 17v24c0 1.74 3.34 3.22 8 3.77h8c4.66-.55 8-2.03 8-3.77v-24z" fill="#3f5c6c"/><path id="Shape" d="m17 33c0 2.209 5.373 4 12 4s12-1.791 12-4v-8c0 2.209-5.373 4-12 4s-12-1.791-12-4z" fill="#35495e"/><circle id="Oval" cx="21" cy="24" fill="#ff5364" r="1"/><circle id="Oval" cx="21" cy="32" fill="#ff5364" r="1"/><circle id="Oval" cx="21" cy="40" fill="#ff5364" r="1"/><g fill="#f0c419"><circle id="Oval" cx="29" cy="9" r="1"/><circle id="Oval" cx="29" cy="5" r="1"/><circle id="Oval" cx="29" cy="1" r="1"/><circle id="Oval" cx="25" cy="1" r="1"/><circle id="Oval" cx="21" cy="1" r="1"/><circle id="Oval" cx="37" cy="1" r="1"/><circle id="Oval" cx="33" cy="1" r="1"/><path id="Shape" d="m29 41h3c.5522847 0 1 .4477153 1 1v7c0 .5522847.4477153 1 1 1h.586c.4043959.0000863.7689341.2437275.923678.6173454.1547439.373618.0692299.8036603-.216678 1.0896546l-5.586 5.586c-.3904999.3903819-1.0235001.3903819-1.414 0l-5.586-5.586c-.2859079-.2859943-.3714219-.7160366-.216678-1.0896546.1547439-.3736179.5192821-.6172591.923678-.6173454h.586c.5522847 0 1-.4477153 1-1v-7c0-.5522847.4477153-1 1-1z"/></g><rect id="Rectangle-path" fill="#b49aca" height="12" rx="2" width="16"/><rect id="Rectangle-path" fill="#b49aca" height="12" rx="2" width="16" x="42"/><ellipse id="Oval" cx="29" cy="17" fill="#547580" rx="12" ry="4"/><path id="Shape" d="m16 2v2h-16v-2c.0032948-1.10320187.89679813-1.9967052 2-2h12c1.1032019.0032948 1.9967052.89679813 2 2z" fill="#894b9d"/><path id="Shape" d="m6 4v8h-4c-1.10320187-.0032948-1.9967052-.8967981-2-2v-6z" fill="#955ba5"/><path id="Shape" d="m58 2v2h-16v-2c.0032948-1.10320187.8967981-1.9967052 2-2h12c1.1032019.0032948 1.9967052.89679813 2 2z" fill="#894b9d"/><path id="Shape" d="m48 4v8h-4c-1.1032019-.0032948-1.9967052-.8967981-2-2v-6z" fill="#955ba5"/></g></g></svg>