<svg height="512" viewBox="0 0 58 58" width="512" xmlns="http://www.w3.org/2000/svg"><g id="Page-1" fill="none" fill-rule="evenodd"><g id="032---Server-Coding" fill-rule="nonzero"><path id="Shape" d="m40 4v43l-16 .92c-1.29.05-2.63.08-4 .08-11.05 0-20-1.79-20-4v-40z" fill="#3f5c6c"/><ellipse id="Oval" cx="20" cy="4" fill="#547580" rx="20" ry="4"/><path id="Shape" d="m0 30c0 2.21 8.95 4 20 4s20-1.79 20-4v-13c0 2.21-8.95 4-20 4s-20-1.79-20-4z" fill="#35495e"/><circle id="Oval" cx="4" cy="10" fill="#ff5364" r="1"/><path id="Shape" d="m4 17c-.55228475 0-1-.4477153-1-1v-2c0-.5522847.44771525-1 1-1s1 .4477153 1 1v2c0 .5522847-.44771525 1-1 1z" fill="#35495e"/><circle id="Oval" cx="4" cy="36" fill="#ff5364" r="1"/><path id="Shape" d="m4 43c-.55228475 0-1-.4477153-1-1v-2c0-.5522847.44771525-1 1-1s1 .4477153 1 1v2c0 .5522847-.44771525 1-1 1z" fill="#35495e"/><circle id="Oval" cx="4" cy="23" fill="#ff5364" r="1"/><path id="Shape" d="m4 30c-.55228475 0-1-.4477153-1-1v-2c0-.5522847.44771525-1 1-1s1 .4477153 1 1v2c0 .5522847-.44771525 1-1 1z" fill="#2c3e50"/><path id="Shape" d="m57.12 16.88c-.5616324-.5634227-1.3244649-.8800702-2.12-.88h-28c-1.6568542 0-3 1.3431458-3 3v33h-5c-.5522847 0-1 .4477153-1 1v2c0 1.6568542 1.3431458 3 3 3h28c1.6568542 0 3-1.3431458 3-3v-33h5c.5522847 0 1-.4477153 1-1v-2c.0000702-.7955351-.3165773-1.5583676-.88-2.12z" fill="#f0c419"/><path id="Shape" d="m58 19v2c0 .5522847-.4477153 1-1 1h-5v-3c0-1.6568542 1.3431458-3 3-3s3 1.3431458 3 3z" fill="#f29c1f"/><path id="Shape" d="m49 58h-28c-1.6568542 0-3-1.3431458-3-3v-2c0-.5522847.4477153-1 1-1h26c.5522847 0 1 .4477153 1 1v1.83c-.0345822 1.6154481 1.173314 2.9884525 2.78 3.16.0730401.0080848.1465276.0114252.22.01z" fill="#f3d55b"/><path id="Shape" d="m55 16c-1.6568542 0-3 1.3431458-3 3v36c0 1.6568542-1.3431458 3-3 3-.0734724.0014252-.1469599-.0019152-.22-.01-1.606686-.1715475-2.8145822-1.5445519-2.78-3.16v-1.83c0-.5522847-.4477153-1-1-1h-21v-33c0-1.6568542 1.3431458-3 3-3z" fill="#f0c419"/><path id="Shape" d="m36 41c-.3464401-.000185-.6681037-.1796678-.8501945-.4743943-.1820909-.2947265-.1986643-.6627032-.0438055-.9726057l4-8c.2468713-.4942948.8477051-.6948712 1.342-.448.4942948.2468713.6948713.8477052.448 1.342l-4 8c-.1695854.3393743-.5166139.553556-.896.553z" fill="#f29c1f"/><g fill="#955ba5"><path id="Shape" d="m33 41c-.2271603.0001065-.4475878-.0771313-.625-.219l-5-4c-.2373126-.1897684-.375469-.4771426-.375469-.781s.1381564-.5912316.375469-.781l5-4c.2790244-.223291.655978-.2807626.9888658-.1507659.3328879.1299968.5711366.4277123.625.781.0538635.3532878-.0848414.7084749-.3638658.9317659l-4.025 3.219 4.024 3.219c.3316357.2651942.4596269.7109129.3192201 1.1116574-.1404069.4007445-.5185906.6691172-.9432201.6693426z"/><path id="Shape" d="m43 41c-.424813.0001993-.8033866-.2680233-.9440546-.6688708-.1406679-.4008474-.0127245-.8468203.3190546-1.1121292l4.025-3.219-4.024-3.219c-.2790244-.223291-.4177293-.5784781-.3638658-.9317659.0538634-.3532877.2921121-.6510032.625-.781.3328878-.1299967.7098414-.0725251.9888658.1507659l5 4c.2373126.1897684.375469.4771426.375469.781s-.1381564.5912316-.375469.781l-5 4c-.17768.1420833-.3984968.2193339-.626.219z"/></g></g></g></svg>