<svg height="512" viewBox="0 0 58 58" width="512" xmlns="http://www.w3.org/2000/svg"><g id="Page-1" fill="none" fill-rule="evenodd"><g id="035---Add-Data" fill-rule="nonzero"><path id="Shape" d="m58 14v40c0 2.209-8.954 4-20 4s-20-1.791-20-4v-40z" fill="#3f5c6c"/><ellipse id="Oval" cx="38" cy="14" fill="#547580" rx="20" ry="4"/><path id="Shape" d="m45.97 27.231c-.5522847.0231959-1.018804-.4057153-1.042-.958-.0231959-.5522847.4057153-1.018804.958-1.042 2.6497678-.1928699 5.2802325-.5941102 7.867-1.2.5338367-.1329664 1.0748187.1902488 1.210707.7233492.1358884.5331004-.1843589 1.0758446-.716707 1.2146508-2.6927452.6338669-5.4311995 1.0548332-8.19 1.259-.03.002-.057.003-.087.003z" fill="#35495e"/><path id="Shape" d="m58 27c0 2.21-8.95 4-20 4-6.7662446-.1555906-13.4858863-1.1635369-20-3v13c6.5141137 1.8364631 13.2337554 2.8444094 20 3 11.05 0 20-1.79 20-4z" fill="#35495e"/><circle id="Oval" cx="22" cy="46" fill="#ff5364" r="1"/><path id="Shape" d="m22 53c-.5522847 0-1-.4477153-1-1v-2c0-.5522847.4477153-1 1-1s1 .4477153 1 1v2c0 .5522847-.4477153 1-1 1z" fill="#35495e"/><path id="Shape" d="m32 5v11c-.0561866.7055936-.4271563 1.3483628-1.01 1.75-1.69 1.41-5.37 2.53-9.99 2.99l-8 .17c-7.4-.44-13-2.47-13-4.91v-11z" fill="#894b9d"/><circle id="Oval" cx="4" cy="12" fill="#f0c419" r="1"/><circle id="Oval" cx="4" cy="15" fill="#f0c419" r="1"/><ellipse id="Oval" cx="16" cy="5" fill="#955ba5" rx="16" ry="5"/><path id="Shape" d="m31 26v6c0 .5522847-.4477153 1-1 1h-9v9c.0016387.0336447-.0017315.0673461-.01.1-.0511593.5090925-.4783498.8974475-.99.9h-6c-.5522847 0-1-.4477153-1-1v-9h-9c-.55228475 0-1-.4477153-1-1v-6c0-.5522847.44771525-1 1-1h9v-9c0-.5522847.4477153-1 1-1h6c.5522847 0 1 .4477153 1 1v9h9c.5522847 0 1 .4477153 1 1z" fill="#26b99a"/></g></g></svg>