<svg height="512" viewBox="0 0 58 58" width="512" xmlns="http://www.w3.org/2000/svg"><g id="Page-1" fill="none" fill-rule="evenodd"><g id="036---Disconnect" fill-rule="nonzero"><path id="Shape" d="m48 30c-.5522847 0-1-.4477153-1-1v-5c0-.5522847.4477153-1 1-1s1 .4477153 1 1v5c0 .5522847-.4477153 1-1 1z" fill="#95a5a5"/><path id="Shape" d="m54 30c-.5522847 0-1-.4477153-1-1v-5c0-.5522847.4477153-1 1-1s1 .4477153 1 1v5c0 .5522847-.4477153 1-1 1z" fill="#95a5a5"/><path id="Shape" d="m40 9v40c0 2.209-8.954 4-20 4s-20-1.791-20-4v-40z" fill="#3f5c6c"/><ellipse id="Oval" cx="20" cy="9" fill="#547580" rx="20" ry="4"/><path id="Shape" d="m27.971 22.231c-.5522847.0231959-1.018804-.4057153-1.042-.958-.0231959-.5522847.4057153-1.018804.958-1.042 2.649439-.1928603 5.2795722-.594101 7.866-1.2.5338367-.1329664 1.0748187.1902488 1.210707.7233492.1358884.5331004-.1843589 1.0758446-.716707 1.2146508-2.6927302.6339441-5.4311907 1.0549113-8.19 1.259z" fill="#35495e"/><path id="Shape" d="m27.971 48.231c-.5522847.023196-1.018804-.4057153-1.042-.958s.4057153-1.018804.958-1.042c2.649439-.1928603 5.2795722-.594101 7.866-1.2.5338367-.1329664 1.0748187.1902488 1.210707.7233492.1358884.5331004-.1843589 1.0758446-.716707 1.2146508-2.6927302.6339441-5.4311907 1.0549113-8.19 1.259z" fill="#35495e"/><circle id="Oval" cx="4" cy="15" fill="#ff5364" r="1"/><path id="Shape" d="m4 22c-.55228475 0-1-.4477153-1-1v-2c0-.5522847.44771525-1 1-1s1 .4477153 1 1v2c0 .5522847-.44771525 1-1 1z" fill="#35495e"/><circle id="Oval" cx="4" cy="41" fill="#ff5364" r="1"/><path id="Shape" d="m4 48c-.55228475 0-1-.4477153-1-1v-2c0-.5522847.44771525-1 1-1s1 .4477153 1 1v2c0 .5522847-.44771525 1-1 1z" fill="#35495e"/><path id="Shape" d="m50 0h2c.5522847 0 1 .44771525 1 1v11h-4v-11c0-.55228475.4477153-1 1-1z" fill="#f29c1f"/><path id="Shape" d="m58 17v6c0 .5522847-.4477153 1-1 1h-12c-.5522847 0-1-.4477153-1-1v-6c0-2.7614237 2.2385763-5 5-5h4c2.7614237 0 5 2.2385763 5 5z" fill="#f0c419"/><path id="Shape" d="m49 46h4v11c0 .5522847-.4477153 1-1 1h-2c-.5522847 0-1-.4477153-1-1z" fill="#f29c1f"/><path id="Shape" d="m58 35v6c0 2.7614237-2.2385763 5-5 5h-4c-2.7614237 0-5-2.2385763-5-5v-6c0-.5522847.4477153-1 1-1h12c.5522847 0 1 .4477153 1 1z" fill="#f0c419"/><g fill="#f29c1f"><path id="Shape" d="m48 20c0 .5522847-.4477153 1-1 1h-3v-2h3c.5522847 0 1 .4477153 1 1z"/><path id="Shape" d="m58 19v2h-7c-.5522847 0-1-.4477153-1-1s.4477153-1 1-1z"/><path id="Shape" d="m58 37v2h-3c-.5522847 0-1-.4477153-1-1s.4477153-1 1-1z"/><path id="Shape" d="m52 38c0 .5522847-.4477153 1-1 1h-7v-2h7c.5522847 0 1 .4477153 1 1z"/></g><path id="Shape" d="m0 35c0 2.209 8.954 4 20 4s20-1.791 20-4v-13c0 2.209-8.954 4-20 4s-20-1.791-20-4z" fill="#35495e"/><path id="Shape" d="m27.971 35.231c-.5522847.0231959-1.018804-.4057153-1.0419999-.958-.023196-.5522847.4057152-1.018804.9579999-1.042 2.649439-.1928603 5.2795722-.594101 7.866-1.2.5338367-.1329664 1.0748187.1902488 1.210707.7233492.1358884.5331004-.1843589 1.0758446-.716707 1.2146508-2.6927302.6339441-5.4311907 1.0549113-8.19 1.259z" fill="#2c3e50"/><circle id="Oval" cx="4" cy="28" fill="#ff5364" r="1"/><path id="Shape" d="m4 35c-.55228475 0-1-.4477153-1-1v-2c0-.5522847.44771525-1 1-1s1 .4477153 1 1v2c0 .5522847-.44771525 1-1 1z" fill="#2c3e50"/></g></g></svg>