<svg height="512" viewBox="0 0 58 58" width="512" xmlns="http://www.w3.org/2000/svg"><g id="Page-1" fill="none" fill-rule="evenodd"><g id="037---Online-Server" fill-rule="nonzero"><path id="Shape" d="m40 4v20.03l-5.31 8.68-9.25 15.14c-1.73.1-3.56.15-5.44.15-11.05 0-20-1.79-20-4v-40z" fill="#3f5c6c"/><ellipse id="Oval" cx="20" cy="4" fill="#547580" rx="20" ry="4"/><path id="Shape" d="m40 17v7.03l-5.31 8.68c-4.8411595.9205081-9.7625024 1.3526751-14.69 1.29-11.05 0-20-1.79-20-4v-13c0 2.21 8.95 4 20 4s20-1.79 20-4z" fill="#35495e"/><path id="Shape" d="m27.971 17.231c-.5522847.023196-1.018804-.4057153-1.042-.958s.4057153-1.018804.958-1.042c2.649439-.1928603 5.2795722-.594101 7.866-1.2.5338367-.1329664 1.0748187.1902488 1.210707.7233492.1358884.5331004-.1843589 1.0758446-.716707 1.2146508-2.6927302.6339441-5.4311907 1.0549113-8.19 1.259z" fill="#35495e"/><circle id="Oval" cx="4" cy="10" fill="#ff5364" r="1"/><path id="Shape" d="m4 17c-.55228475 0-1-.4477153-1-1v-2c0-.5522847.44771525-1 1-1s1 .4477153 1 1v2c0 .5522847-.44771525 1-1 1z" fill="#35495e"/><circle id="Oval" cx="4" cy="23" fill="#ff5364" r="1"/><path id="Shape" d="m4 30c-.55228475 0-1-.4477153-1-1v-2c0-.5522847.44771525-1 1-1s1 .4477153 1 1v2c0 .5522847-.44771525 1-1 1z" fill="#2c3e50"/><circle id="Oval" cx="4" cy="36" fill="#ff5364" r="1"/><path id="Shape" d="m4 43c-.55228475 0-1-.4477153-1-1v-2c0-.5522847.44771525-1 1-1s1 .4477153 1 1v2c0 .5522847-.44771525 1-1 1z" fill="#35495e"/><path id="Shape" d="m58 41c0 .33-.01.67-.03 1-.1171092 2.0744556-.6189743 4.1090438-1.48 6-.3069077.6921167-.6645485 1.3606042-1.07 2-3.1057606 4.9741662-8.5558651 7.9964674-14.42 7.9964674s-11.3142394-3.0223012-14.42-7.9964674c-.4054515-.6393958-.7630923-1.3078833-1.07-2-.8610257-1.8909562-1.3628908-3.9255444-1.48-6-.02-.33-.03-.67-.03-1s.01-.67.03-1c.1171092-2.0744556.6189743-4.1090438 1.48-6 .3069077-.6921167.6645485-1.3606042 1.07-2 3.1057606-4.9741662 8.5558651-7.9964674 14.42-7.9964674s11.3142394 3.0223012 14.42 7.9964674c.4054515.6393958.7630923 1.3078833 1.07 2 .8610257 1.8909562 1.3628908 3.9255444 1.48 6 .02.33.03.67.03 1z" fill="#67b9cc"/><path id="Shape" d="m50.966 40h-3.981c-.0349236-2.0081544-.1962427-4.0121182-.483-6h3.336c.6685436 1.933771 1.0486222 3.9554658 1.128 6zm-9.966 16c-1 0-2.272-2.2-3.111-6h6.222c-.839 3.8-2.111 6-3.111 6zm-3.483-8c-.3019021-1.9864219-.4689509-3.991007-.5-6h7.968c-.0310491 2.008993-.1980979 4.0135781-.5 6zm-.5-8c.0310491-2.008993.1980979-4.0135781.5-6h6.966c.3019021 1.9864219.4689509 3.991007.5 6zm3.983-14c1 0 2.272 2.2 3.111 6h-6.222c.839-3.8 2.111-6 3.111-6zm7.981 6h-2.824c-.3218748-1.7321912-.8646382-3.4159338-1.615-5.01 1.9365635 1.2013941 3.4795485 2.9428573 4.439 5.01zm-11.523-5.01c-.7503618 1.5940662-1.2931252 3.2778088-1.615 5.01h-2.824c.9594515-2.0671427 2.5024365-3.8086059 4.439-5.01zm-5.296 7.01h3.338c-.2867573 1.9878818-.4480764 3.9918456-.483 6h-3.983c.0793778-2.0445342.4594564-4.066229 1.128-6zm-1.128 8h3.981c.0349236 2.0081544.1962427 4.0121182.483 6h-3.336c-.6685436-1.933771-1.0486222-3.9554658-1.128-6zm1.985 8h2.824c.3218748 1.7321912.8646382 3.4159338 1.615 5.01-1.9365635-1.2013941-3.4795485-2.9428573-4.439-5.01zm11.523 5.01c.7503618-1.5940662 1.2931252-3.2778088 1.615-5.01h2.824c-.9594515 2.0671427-2.5024365 3.8086059-4.439 5.01zm5.3-7.01h-3.342c.2867573-1.9878818.4480764-3.9918456.483-6h3.981c-.078733 2.0444339-.4581372 4.0661261-1.126 6zm8.132-6c.02-.33.03-.67.03-1s-.01-.67-.03-1h-5.014c-.0688975-2.0383302-.4188679-4.0573904-1.04-6h4.57c-.3069077-.6921167-.6645485-1.3606042-1.07-2h-4.26c-2.12-4.8-5.88-8-10.16-8s-8.04 3.2-10.16 8h-4.26c-.4054515.6393958-.7630923 1.3078833-1.07 2h4.57c-.6211321 1.9426096-.9711025 3.9616698-1.04 6h-5.01c-.02.33-.03.67-.03 1s.01.67.03 1h5.01c.0688975 2.0383302.4188679 4.0573904 1.04 6h-4.57c.3069077.6921167.6645485 1.3606042 1.07 2h4.26c2.12 4.8 5.88 8 10.16 8s8.04-3.2 10.16-8h4.26c.4054515-.6393958.7630923-1.3078833 1.07-2h-4.57c.6211321-1.9426096.9711025-3.9616698 1.04-6z" fill="#2fa8cc"/></g></g></svg>