<svg height="512" viewBox="0 0 54 58" width="512" xmlns="http://www.w3.org/2000/svg"><g id="Page-1" fill="none" fill-rule="evenodd"><g id="039---Server-Data" fill-rule="nonzero"><path id="Shape" d="m52 32v22c0 2.209139-1.790861 4-4 4h-44c-2.209139 0-4-1.790861-4-4v-38c0-2.209139 1.790861-4 4-4h48z" fill="#ecf0f1"/><path id="Shape" d="m52 12v8h-52v-4c0-2.209139 1.790861-4 4-4z" fill="#ff5364"/><rect id="Rectangle-path" fill="#3f5c6c" height="8" rx="2" width="24" x="30"/><rect id="Rectangle-path" fill="#3f5c6c" height="8" rx="2" width="24" x="30" y="12"/><rect id="Rectangle-path" fill="#3f5c6c" height="8" rx="2" width="24" x="30" y="24"/><g fill="#35495e"><path id="Rectangle-path" d="m32 8h20v4h-20z"/><path id="Rectangle-path" d="m32 20h20v4h-20z"/><path id="Shape" d="m38 5h-4c-.5522847 0-1-.44771525-1-1s.4477153-1 1-1h4c.5522847 0 1 .44771525 1 1s-.4477153 1-1 1z"/><path id="Shape" d="m38 17h-4c-.5522847 0-1-.4477153-1-1s.4477153-1 1-1h4c.5522847 0 1 .4477153 1 1s-.4477153 1-1 1z"/><path id="Shape" d="m38 29h-4c-.5522847 0-1-.4477153-1-1s.4477153-1 1-1h4c.5522847 0 1 .4477153 1 1s-.4477153 1-1 1z"/></g><circle id="Oval" cx="50" cy="4" fill="#ff5364" r="1"/><circle id="Oval" cx="50" cy="16" fill="#ff5364" r="1"/><circle id="Oval" cx="4" cy="16" fill="#f3d55b" r="1"/><circle id="Oval" cx="8" cy="16" fill="#f3d55b" r="1"/><circle id="Oval" cx="12" cy="16" fill="#f3d55b" r="1"/><circle id="Oval" cx="50" cy="28" fill="#ff5364" r="1"/><path id="Shape" d="m26 35c.0048289 2.9185173-1.1540496 5.7185405-3.22 7.78l-7.78-7.78v-11.0000016c2.9178694-.0015913 5.716688 1.1568225 7.7799336 3.220068 2.0632455 2.0632456 3.2216593 4.8620642 3.2200664 7.7799336z" fill="#f0c419"/><path id="Shape" d="m22.78 42.78c-3.1460414 3.1475191-7.8786284 4.0893472-11.9900123 2.3861221-4.11138382-1.703225-6.79146511-5.7159029-6.78998831-10.1661221h11.00000061z" fill="#2fa8cc"/><path id="Shape" d="m15 23.9999984v11.0000016h-11.00000164c-.00159123-2.9178694 1.15682249-5.716688 3.22006805-7.7799336 2.06324555-2.0632455 4.86206419-3.2216593 7.77993359-3.220068z" fill="#955ba5"/><path id="Shape" d="m7 51h-1c-.55228475 0-1-.4477153-1-1s.44771525-1 1-1h1c.55228475 0 1 .4477153 1 1s-.44771525 1-1 1z" fill="#547580"/><path id="Shape" d="m22 51h-11c-.5522847 0-1-.4477153-1-1s.4477153-1 1-1h11c.5522847 0 1 .4477153 1 1s-.4477153 1-1 1z" fill="#547580"/><path id="Shape" d="m22 55h-3c-.5522847 0-1-.4477153-1-1s.4477153-1 1-1h3c.5522847 0 1 .4477153 1 1s-.4477153 1-1 1z" fill="#547580"/><path id="Shape" d="m15 55h-9c-.55228475 0-1-.4477153-1-1s.44771525-1 1-1h9c.5522847 0 1 .4477153 1 1s-.4477153 1-1 1z" fill="#547580"/><path id="Shape" d="m29 47h2c.5522847 0 1 .4477153 1 1v6h-4v-6c0-.5522847.4477153-1 1-1z" fill="#955ba5"/><path id="Shape" d="m37 42h2c.5522847 0 1 .4477153 1 1v11h-4v-11c0-.5522847.4477153-1 1-1z" fill="#955ba5"/><path id="Shape" d="m45 36h2c.5522847 0 1 .4477153 1 1v17h-4v-17c0-.5522847.4477153-1 1-1z" fill="#955ba5"/><path id="Shape" d="m48 55h-22c-.5522847 0-1-.4477153-1-1s.4477153-1 1-1h22c.5522847 0 1 .4477153 1 1s-.4477153 1-1 1z" fill="#bdc3c7"/></g></g></svg>